<?xml version="1.0" encoding="utf-8"?>
<!-- Generator: Adobe Illustrator 24.0.3, SVG Export Plug-In . SVG Version: 6.00 Build 0)  -->
<svg version="1.1" id="Capa_1" xmlns="http://www.w3.org/2000/svg" xmlns:xlink="http://www.w3.org/1999/xlink" x="0px" y="0px"
	 viewBox="0 0 318.6 268.9" style="enable-background:new 0 0 318.6 268.9;" xml:space="preserve">
<style type="text/css">
	.st0{fill:#DF2E31;}
	.st1{fill:#FDD600;}
</style>
<g>
	<g>
		<g>
			<g>
				<g>
					<path class="st0" d="M215.9,116.6c-8.6,34.2-31.9,58.5-69.5,73c-9,3.4-19.4,5.8-31,6.8c-12.8,1.2-24.2-0.1-33.9-3.2
						c-12.5-4.3-20.1-11.9-22.9-22.9c-3.7-14.3,2.6-28.4,19.1-41.7c2.8-2.4,4.5-3.3,5.2-3.1c0.7,0.2,0.8,1.1,0.8,2.7
						c0,1.6,0.1,4.1,0.5,6.9c1,5.9,3.7,10.8,8.1,14.2c7,5.8,16.2,7.8,27.7,5.9c9.6-1.6,19.6-6.2,29.8-13.6
						c9.6-7,17.3-14.7,22.8-23.5c7.3-11.4,9.8-23.3,7.8-35.3c-3-18.2-15.7-25.4-38.3-21.6c-3.4,0.6-7.1,1.5-11,2.5
						c-11.9,3.2-20.1,7.2-24.7,12.1l-5.2,6.6c-1.9,2.2-3.9,3.5-6.6,4.3c-4.6,1.1-7.7-2.5-9.7-10.2c-2.5-9.4,3.5-18.7,18-27.5
						c11-6.6,22.3-11,34-13.3c18.8-3.5,35-2,49.2,4.8c15.9,7.5,25.7,20.2,29.6,38C218.6,92.9,218.8,105.6,215.9,116.6z M77.8,136.8
						c-2.9-0.2-6.1,3.6-9.3,10.8c-3.2,7.2-4.6,12.2-4.1,15.6c0.3,1.5,1.1,2.7,2.1,3.1c0.5-2.6,2-7,3.9-12.7c5.7-9.5,8.3-14.8,8.1-16
						C78.4,137,78.1,136.8,77.8,136.8z M129.6,45.5c-7,2.1-14.7,5.3-23.1,10.2c-11.3,6.4-16.8,11.7-16.1,15.7c0.2,1.2,1,2.4,2.7,3
						l4.1-6.1c5.9-8.3,16.9-14.9,32.8-20.4c5.7-1.9,8.3-3.3,7.7-3.5C136.6,43.7,134.1,44.1,129.6,45.5z M136.5,128.6l-5.8,12.8
						c-3.1,4.3-7.2,6.6-12.3,6.5c-4.1,0.1-8.3-0.5-13.4-1.9c-3-0.8-4.9-2.7-5.5-6.1c-0.3-1.8,1.6-7.6,5.7-17.5
						c2.5-6.1,6-15.6,9.9-28.1c0.2-0.4,0.1-3.2-0.4-7.9c0-2.2,1.5-4.4,4.6-6.5c13.4-9.2,23.7-14.5,31.1-15.4
						c4.6-0.8,9.1,2.9,7.6,7.3C154.3,85.2,147.3,104.2,136.5,128.6z M145,74.7c-3.1,0.5-7.6,2.2-13.8,5.2c-7.1,3.4-10.5,5.9-9.8,8
						c0.7,2.4,0.9,3.4,0.8,3c0.7,4-1.5,12-6.9,23.4c-0.9,4-2.5,8-4,12.1c-2.4,6.5-4,10.2-4.5,10.9c0.2,0.9,0.5,1.2,1.2,1.4
						c1.5-0.6,4.1-4.2,7.1-10.7l4.9-10.7c3.1-10.1,5.1-19,5.5-26.4c0.2-2.9,7.3-7.9,21.7-15.1c0.3,0,0.3-0.4,0.5-1
						C147.8,74.6,146.8,74.4,145,74.7z M189.8,86c-0.9,0.5-1.1,0.8-1.3,1.8c-0.5,22-10.7,40.6-31.4,55.8c-6.5,4.9-17.5,11.5-32.3,20
						c0,0.3,0.5,0.9,1.1,1.1c17.8-5.5,33.4-15.1,46.4-28.8c15.2-15.9,21.3-32.2,18.2-49.2C190.4,86.2,190.1,85.9,189.8,86z"/>
				</g>
				<g>
					<path class="st0" d="M106.1,198.8c-9,0-17.4-1.3-25.2-3.8c-13.1-4.5-21.3-12.7-24.2-24.3c-3.9-15.3,2.7-30,19.8-43.7
						c4.2-3.6,5.9-3.8,7-3.4c2.3,0.7,2.2,3.5,2.2,4.7c0,0.7,0,3.3,0.5,6.5c0.9,5.5,3.5,10,7.4,13c6.6,5.5,15.4,7.3,26.2,5.5
						c9.3-1.6,19.1-6,29-13.2c9.8-7.2,17.1-14.7,22.3-23c6.9-10.8,9.5-22.2,7.5-34c-1.4-8.6-5-14.4-10.8-17.6
						c-5.9-3.3-14.4-4.1-25.2-2.3c-3.1,0.5-6.6,1.4-10.2,2.3l-0.7,0.2c-11.7,3.2-19.4,7-23.7,11.5l-5.2,6.5c-2.1,2.5-4.5,4.1-7.6,5
						l-0.1,0c-3.9,0.9-9.2-0.3-12-11.6c-2.8-10.4,3.6-20.4,18.9-29.7c11.1-6.7,22.8-11.3,34.7-13.6c19.5-3.6,36-2,50.4,5
						c16.3,7.7,26.6,20.9,30.7,39.3c3.2,15.1,3.3,27.9,0.3,39c-8.7,34.5-32.5,59.6-70.7,74.4c-9.5,3.6-20.1,5.9-31.5,6.9
						C112.3,198.6,109.2,198.8,106.1,198.8z M81.6,128c-0.6,0.4-1.5,1-2.7,2.1c-15.8,12.7-22,26-18.5,39.7
						c2.6,10.4,9.7,17.4,21.6,21.5c9.9,3.2,21.1,4.2,33.1,3.1c11.1-0.9,21.3-3.2,30.5-6.7c18.5-7.2,33.6-16.8,44.9-28.7
						c11.3-11.9,19.2-26.3,23.4-43l0,0c2.8-10.6,2.7-22.7-0.4-37.2c-3.8-17.4-13.2-29.4-28.5-36.6c-13.6-6.6-29.3-8.1-47.9-4.7
						c-11.4,2.2-22.6,6.6-33.4,13.1C90.2,59,84.5,67.5,86.7,76c2.4,9.8,6,9,7.2,8.8c2.3-0.7,4-1.8,5.6-3.6l5.3-6.7
						c4.8-5.1,13.1-9.2,25.6-12.6l0.7-0.2c3.7-0.9,7.2-1.8,10.5-2.3c11.7-2,21-1,27.8,2.8c6.9,3.9,11.2,10.8,12.8,20.5
						c2.1,12.7-0.6,25.1-8,36.7c-5.4,8.7-13,16.6-23.3,24.1c-10.4,7.6-20.7,12.3-30.7,13.9c-12,2-21.8-0.1-29.3-6.3
						c-4.7-3.6-7.7-9-8.8-15.4c-0.6-3.5-0.6-6.3-0.5-7.3C81.6,128.1,81.6,128.1,81.6,128z M67.9,169.2l-2.3-1
						c-1.7-0.8-2.9-2.5-3.3-4.6c-0.6-3.7,0.7-8.9,4.2-16.8c3.6-8,7.2-12,11-12c0,0,0.1,0,0.2,0c1.2,0,2.5,0.8,2.8,2.5
						c0.2,1.1,0.4,2.6-8.3,17.2l-0.4,1.1c-1.7,5-3,8.9-3.4,11.2L67.9,169.2z M75.9,139.6c-1.5,1.2-3.5,3.9-5.7,8.9
						c-2,4.5-3.3,8.1-3.8,10.8c0.5-1.5,1-3.1,1.6-4.9l0.5-1.5l0.1-0.2C73.1,145.2,75.1,141.5,75.9,139.6z M76.6,137.8L76.6,137.8
						L76.6,137.8z M126,166.8l-0.6-0.2c-1.3-0.4-2.3-1.5-2.5-2.6l-0.2-1.4l1.2-0.7c12.5-7.2,25-14.6,32.1-19.9
						c20.1-14.8,30.1-32.6,30.6-54.3l0-0.3c0.2-1.6,0.9-2.5,2.3-3.2l0.3-0.1l0.3,0c0.7-0.1,1.3,0,1.9,0.4c0.6,0.5,1,1.2,1.2,2
						c3.2,17.3-3.1,34.4-18.7,50.8c-13.1,13.8-29,23.6-47.2,29.3L126,166.8z M189.1,100.2c-3.5,17.4-13.9,32.5-30.8,44.9
						c-4,3-9.8,6.8-18.7,12.1c11.7-5.5,22.2-13.1,31.3-22.7C181.8,123.2,187.8,111.9,189.1,100.2z M188.6,87.2L188.6,87.2
						L188.6,87.2z M117.8,149.8c-4.2,0-8.5-0.6-13.3-2c-3.8-1-6.2-3.6-6.9-7.7c-0.3-1.9,0.5-5.8,5.8-18.6c1.8-4.3,5.4-13.7,9.9-27.9
						l0-0.1c0-0.4,0-1.9-0.5-7l0-0.1c-0.1-2.9,1.8-5.7,5.5-8.2c14.1-9.7,24.3-14.7,32-15.7c3.2-0.5,6.5,0.6,8.4,3
						c1.7,2,2.2,4.5,1.4,6.9c-4.2,14.8-11.7,34.4-21.8,57l0,0l-5.9,12.9l-0.1,0.2c-3.5,5-8.2,7.5-13.9,7.3
						C118.2,149.8,118,149.8,117.8,149.8z M117,95.2c-4.5,14.2-8.1,23.6-9.9,28c-5.1,12.4-5.7,15.6-5.5,16.4c0.4,2.5,1.7,3.9,4,4.5
						c4.7,1.3,8.8,1.9,12.8,1.8h0.1c4.3,0.1,7.7-1.7,10.5-5.5l5.7-12.6c10-22.4,17.4-41.9,21.6-56.5l0-0.1c0.5-1.4-0.1-2.5-0.6-3.1
						c-1.1-1.3-3-1.9-4.8-1.6l-0.1,0c-6.9,0.9-16.8,5.8-30.2,15.1c-1.7,1.2-3.8,2.9-3.8,4.8C117.5,93.3,117.3,94.5,117,95.2z
						 M108,140.9l-0.7-0.2c-0.9-0.3-2.2-0.9-2.5-3l-0.1-0.8l0.5-0.7c0.3-0.4,1.5-3.2,4.3-10.5c1.5-3.9,3-8,3.9-11.9l0-0.2l0.1-0.2
						c6.8-14.4,7-20.2,6.7-22.1c-0.2-0.7-0.4-1.8-0.8-2.9c-1.2-3.7,3.3-6.7,10.8-10.4c6.5-3.1,11-4.8,14.3-5.3l0,0
						c2.6-0.4,3.9-0.2,4.6,0.9c0.4,0.6,0.4,1.3,0.2,1.9c0,0.1,0,0.2-0.1,0.2c-0.2,1-0.8,1.7-1.5,2c-19.4,9.7-20.3,13-20.4,13.3
						c-0.3,7-2.2,15.8-5.5,26.8l-0.1,0.2l-4.9,10.7c-3.2,7-6,10.9-8.2,11.8L108,140.9z M117.2,115c-1,4.1-2.5,8.2-4,12.2
						c-0.2,0.5-0.4,1-0.5,1.5c0.2-0.5,0.4-0.9,0.7-1.4l4.8-10.5c1.2-3.8,2.1-7.3,2.9-10.5C119.8,109.2,118.5,112.3,117.2,115z
						 M123.5,90.7l-0.6,0.1L123.5,90.7C123.5,90.7,123.5,90.7,123.5,90.7z M123.3,87.3c0.2,0.6,0.4,1.3,0.5,2
						c0.9-1.9,3.4-4.5,10.1-8.5c-0.6,0.3-1.3,0.6-2,0.9C124.3,85.4,123.4,87,123.3,87.3z M123.3,87.3
						C123.3,87.3,123.3,87.3,123.3,87.3C123.3,87.3,123.3,87.3,123.3,87.3z M93.8,76.9l-1.5-0.6c-2.2-0.9-3.6-2.5-4-4.6
						c-0.8-5,4.8-10.9,17.1-17.8c7.7-4.5,15.6-8,23.5-10.4c4.8-1.5,7.8-2,9.7-0.9c0.7,0.4,1.1,1,1.1,1.8c0,1.2,0,2.2-9.1,5.3
						c-15.9,5.5-26.3,12-31.8,19.7L93.8,76.9z M100.3,61.8c-7.8,5.4-8.2,8.4-8,9.3c0,0.1,0.1,0.4,0.2,0.6l3-4.4
						C96.9,65.4,98.5,63.6,100.3,61.8z"/>
				</g>
			</g>
		</g>
		<g>
			<g>
				<g>
					<path class="st1" d="M204,114.6c-8.6,34.2-31.9,58.5-69.5,73c-9,3.4-19.4,5.8-31,6.8c-12.8,1.2-24.2-0.1-33.9-3.2
						c-12.5-4.3-20.1-11.9-22.9-22.9c-3.7-14.3,2.6-28.4,19.1-41.7c2.8-2.4,4.5-3.3,5.2-3.1s0.8,1.1,0.8,2.7s0.1,4.1,0.5,6.9
						c1,5.9,3.7,10.8,8.1,14.2c7,5.8,16.2,7.8,27.7,5.9c9.6-1.6,19.6-6.2,29.8-13.6c9.6-7,17.3-14.7,22.8-23.5
						c7.3-11.4,9.8-23.3,7.8-35.3c-3-18.2-15.7-25.4-38.3-21.6c-3.4,0.6-7.1,1.5-11,2.5c-11.9,3.3-20.1,7.2-24.7,12.1l-5.3,6.6
						c-1.8,2.2-3.9,3.5-6.6,4.3c-4.6,1.1-7.7-2.5-9.7-10.2c-2.5-9.4,3.5-18.7,18-27.5c11-6.6,22.3-11,34-13.3
						c18.8-3.5,35-2,49.2,4.8c15.9,7.5,25.6,20.2,29.6,38C206.8,91,207,103.7,204,114.6z M65.9,134.9c-2.9-0.2-6.1,3.6-9.3,10.8
						c-3.2,7.2-4.6,12.2-4.1,15.6c0.3,1.5,1.1,2.7,2.1,3.1c0.5-2.6,2-7,3.9-12.7c5.7-9.5,8.3-14.8,8.1-16
						C66.6,135.1,66.2,134.8,65.9,134.9z M117.7,43.5c-7,2.1-14.7,5.3-23.1,10.2c-11.3,6.4-16.8,11.7-16.1,15.7c0.2,1.2,1,2.4,2.7,3
						l4.1-6.1c5.9-8.3,16.9-14.9,32.8-20.4c5.7-1.9,8.3-3.3,7.7-3.5C124.7,41.7,122.3,42.1,117.7,43.5z M124.6,126.7l-5.8,12.7
						c-3.1,4.3-7.2,6.6-12.3,6.5c-4.1,0-8.4-0.5-13.4-1.9c-3-0.8-4.9-2.7-5.5-6.1c-0.3-1.9,1.6-7.6,5.7-17.5c2.5-6.1,6-15.6,9.9-28
						c0.2-0.4,0.1-3.2-0.4-7.9c0-2.2,1.5-4.4,4.6-6.5c13.4-9.2,23.7-14.5,31.1-15.4c4.6-0.8,9.1,2.9,7.6,7.3
						C142.5,83.3,135.5,102.3,124.6,126.7z M133.1,72.8c-3.1,0.5-7.6,2.2-13.8,5.2c-7.1,3.4-10.5,5.9-9.8,8c0.7,2.4,0.9,3.4,0.8,3
						c0.7,4-1.5,12-6.9,23.4c-0.9,4-2.5,8-4,12.1c-2.4,6.5-4,10.2-4.5,10.9c0.2,0.9,0.5,1.2,1.2,1.4c1.5-0.6,4.1-4.2,7.1-10.7
						l4.9-10.7c3.1-10.1,5.1-19,5.5-26.4c0.2-2.9,7.3-7.9,21.7-15.1c0.3,0,0.3-0.4,0.5-1C135.9,72.6,135,72.5,133.1,72.8z M177.9,84
						c-0.9,0.5-1.1,0.8-1.3,1.8c-0.5,22-10.7,40.6-31.4,55.8c-6.5,4.9-17.5,11.5-32.3,20c0,0.3,0.5,0.9,1.1,1.1
						c17.8-5.5,33.4-15.1,46.4-28.8c15.2-15.9,21.3-32.2,18.2-49.1C178.6,84.2,178.2,84,177.9,84z"/>
				</g>
				<g>
					<path class="st1" d="M94.2,198.8c-9.2,0-17.8-1.3-25.8-3.8l-0.1,0c-13.8-4.7-22.3-13.3-25.5-25.7c-4.1-16.1,2.7-31.5,20.4-45.7
						c4.1-3.5,6.6-4.5,8.9-3.8c3.8,1.1,3.6,5.3,3.6,6.7c0,0.7,0,3,0.5,6.1c0.8,5,3.1,9,6.6,11.8l0.1,0.1c5.4,4.5,12.3,6.3,21,5.5
						c-3.8-0.2-7.6-0.8-11.8-2c-4.6-1.2-7.5-4.5-8.3-9.2c-0.4-2.4,0.4-6.3,5.9-19.7c1.7-4.3,5.3-13.7,9.8-27.5c0-0.5,0-2.1-0.5-6.5
						l0-0.3c-0.1-3.6,2.1-7,6.4-9.9c5.2-3.6,10-6.6,14.3-9c-10.8,3-18.3,6.6-22.1,10.7L92.3,83c-2.3,2.8-5.1,4.6-8.6,5.6l-0.2,0
						c-3.9,0.9-11,0.5-14.4-13c-3-11.3,3.6-22,19.8-31.9c11.3-6.8,23.2-11.5,35.3-13.8c20-3.7,36.9-2,51.6,5.1
						c16.8,8,27.5,21.7,31.7,40.7c3.3,15.4,3.4,28.5,0.3,40c-8.8,35.2-33,60.7-71.9,75.7c-9.7,3.7-20.5,6-32.1,7
						C100.6,198.7,97.4,198.8,94.2,198.8z M70.9,187.4c9.7,3.1,20.5,4.1,32.3,3c10.9-0.9,21-3.1,30-6.5c18.2-7,33.1-16.5,44.2-28.2
						c11.1-11.6,18.8-25.8,22.9-42.1l0-0.1c2.7-10.2,2.6-22.1-0.4-36.3c-3.7-16.7-12.7-28.2-27.4-35.2c-13.2-6.4-28.5-7.9-46.7-4.5
						c-1,0.2-1.9,0.4-2.8,0.6c2-0.2,3.6,0,5,0.8c1.2,0.7,2.1,2,2.1,3.5c0,3-2,4.4-10.5,7.2C104,55.1,93.9,61.3,88.6,68.7l-5.8,8.7
						l-3-1.2c-1-0.4-1.9-1-2.7-1.6c0.9,3.3,2.4,6.7,4.5,6.2c1.9-0.5,3.2-1.4,4.5-3l5.4-6.8c5-5.4,13.7-9.7,26.5-13.2l1.2-0.3
						c3.6-0.9,7-1.7,10.2-2.3c12.3-2.1,21.8-1.1,29.1,3c7.4,4.2,12,11.5,13.8,21.9c0.2,1.4,0.4,2.7,0.5,4.1c0.5-1.7,1.5-2.9,3.2-3.8
						l0.6-0.3l0.6-0.1c1.2-0.2,2.4,0.1,3.4,0.8c1,0.8,1.8,1.9,2,3.3c3.3,18-3.1,35.7-19.2,52.6c-13.4,14-29.6,24.1-48.1,29.8
						l-1.2,0.4l-1.2-0.4c-2-0.6-3.5-2.3-3.9-4.2l-0.5-2.7l2.4-1.4c1.5-0.9,3-1.8,4.6-2.6c-2.3,0.7-4.6,1.2-6.8,1.6
						c-12.5,2.1-22.9-0.2-30.8-6.7c-3.7-2.9-6.4-6.7-8.1-11.2c-1,2.5-3.2,6.6-7.7,14.1l-0.4,1.1c-1.6,4.8-2.9,8.6-3.3,10.7l-1,4.9
						l-4.6-2c-1.1-0.5-2.1-1.3-2.8-2.3c0.1,0.5,0.2,1.1,0.4,1.6C53,177,59.6,183.6,70.9,187.4z M150.1,71.1
						c-4.2,14.8-11.8,34.6-21.8,57.2l0,0l-6,13.1l-0.2,0.3c-1.5,2.1-3.2,3.8-5.1,5.1c6.1-2.3,12.3-5.7,18.7-10.3
						c9.6-7,16.7-14.3,21.7-22.4c6.7-10.4,9.1-21.4,7.2-32.6c-1.2-7.1-4.2-15.7-15.6-18.4C150.6,65.5,151,68.3,150.1,71.1z
						 M96.8,140.8c3.5,0.8,6.6,1.2,9.7,1.1h0.1h0.1c3.6,0,6.4-1.4,8.8-4.6L121,125c9.9-22.3,17.3-41.7,21.5-56.2l0.1-0.2
						c0.1-0.3,0.2-0.7-0.2-1.2c-0.5-0.6-1.6-1.1-2.9-0.9l-0.2,0c-2.6,0.3-5.7,1.3-9.4,2.9c0.9-0.3,1.8-0.5,2.6-0.6
						c1.5-0.2,5-0.8,6.6,1.9c0.7,1.1,0.8,2.4,0.4,3.6c0,0,0,0,0,0.1c-0.5,2.1-1.7,3-2.7,3.3c-15.6,7.8-18.7,11.1-19.2,12
						c-0.4,7.1-2.2,15.9-5.6,26.9l-0.1,0.2l-5,10.9c-5.2,11.2-8.2,12.4-9.3,12.8L96.8,140.8z M92,138.6c0.3,0.6,0.7,1,1.3,1.3
						C92.8,139.5,92.4,139.1,92,138.6z M66.8,131c0.5,0.1,0.9,0.2,1.3,0.4c0-0.5-0.1-1-0.1-1.4C67.5,130.4,67.1,130.7,66.8,131z
						 M117.4,89.8L117.4,89.8L117.4,89.8z"/>
				</g>
			</g>
		</g>
	</g>
	<g>
		<g>
			<g>
				<g>
					<path class="st0" d="M260.3,232.1c-5.4,3.3-10.8,5-16.2,5.1c-8.9,0.2-15.7-4.1-20.1-12.6c-0.8-2-1.6-4.2-1.9-6.9l-0.3-2
						c0-1.5,0.8-7.4,2.5-17.6c-0.3-1.7-0.8-2.5-2-2.4c-0.5,0-1.2,0.3-2.2,0.8c-2.7,0.8-6.9,2.1-12.2,4.2c-0.7,0.3-2.9,2.8-6.5,7.3
						c-16.6,20.2-32.1,30.4-47.2,30.8c-6.7,0.2-12.6-1.4-17.7-4.8c-5.5-3.6-8.6-8.4-9.5-14.8c-0.6-4.7,0.3-9.2,2.4-13.2
						c1.2-1.8,2.2-2.8,2.9-2.8c0.2,0,0.8,0.2,1.2,0.5c5.8,6.8,11.6,10.1,16.8,9.7c7.4-0.4,16.2-5.8,26.3-16.5
						c7-7.3,17.5-21.7,31.8-43.5l2.1-3.3l2.8-5.3c0.7-2.2-0.3-4-3.1-5.4c-1.5-0.7-3.5-1.2-5.7-1.3c-0.7,0-1.5,0-1.7-0.2
						c-1.2-0.7-1.8-1.7-1.8-2.4c-0.1-2.5,4.1-4.8,12.2-7c7.6-2.2,15.5-4.3,23.3-6.7c9.6-2.5,17.2-3.9,23.4-4c2,0,3.7,0.2,5.4,0.4
						c3.7,1.2,5.5,3.6,4.9,7c-0.6,4.2-3.2,12.9-7,26.6c-5,16.9-7.9,30.1-8.9,39.8c-0.2,3-0.4,5.2-0.3,6.4c0.4,5.9,4.5,12,10.2,10.9
						c2.7-0.6,5.4-2.6,8-6.1c0.7-0.8,1.2-1,1.5-0.8c0.5,0.2,0.8,1,1.1,2.7c0.3,1.2,0.3,2.7,0.1,4.9
						C273.8,219.5,268.8,227,260.3,232.1z M134.4,214.9c0-1.2-0.3-3.2-1.1-5.7c-0.3-0.2-0.5-0.5-0.8-0.5c-0.7,0-1.2,1.3-0.9,4
						c0.3,2.7,0.8,3.9,2.1,4.2C134.2,216.7,134.4,216.2,134.4,214.9z M220.9,145.1c-0.7,0-2.2,1.5-4.1,4.5
						c-13.3,21.1-22.2,34.2-26.2,39.4c-11.8,14.9-24.1,25-37.1,30.3c-1.7,0.3-2.5,0.8-2.4,1.3l0.8,0.7c12.8-1.3,26.7-11,41.5-29.2
						c9.8-11.8,18.7-25.7,26.9-41.4c0.7-2.2,1.1-3.7,1.1-4.7C221.4,145.4,221.1,145.1,220.9,145.1z M259.4,123.4
						c0-0.7-1-1.2-2.8-1.2c-2,0-4.7,0.6-8.4,1.7c-0.5,0-6.6,2.1-18.6,6.1c-7.4,2.4-13.8,3.8-18.9,3.9c-1.2,0.8-1.7,1.3-1.7,1.5
						c0,0.2,0.2,0.2,0.5,0.5c1.7,0.2,3.5,0.4,5.2,0.4c4-0.1,10.3-1.7,19.1-4.9c5.4-1.9,13.7-4.5,24.8-7.5L259.4,123.4z M233.3,158.4
						c-0.5-0.5-1.5,0.5-2.9,3c-3.3,5.8-7.8,13-13.5,22.1c-0.5,1.2-0.7,2-0.4,2.5c0.3,0.5,0.8,0.7,1.5,0.7c4.7-0.1,7.9-1.4,9.6-3.7
						c1.2-2.2,3.2-10,6.1-22.9C233.8,159.4,233.6,158.7,233.3,158.4z M240.5,160.7c-3.7,0.1-4.6,5.5-7.3,14.8
						c-3,9.7-6.8,14-7.3,14.3c-4.2,0.1-6.2,0.7-6.1,1.6c0.2,0.2,0.5,0.5,1.2,0.7c1.7,0.2,3,0.4,4.2,0.4c6.2-0.2,9-5.2,12-15.9
						c1.6-5.2,3.9-10.2,3.9-13.4C241.1,161.9,240.8,161,240.5,160.7z M231.3,198.7c-1,0-1.9,1.8-2.6,5.5c-0.7,3.5-1.1,6-1.1,7.7
						c0,1.7,0.3,2.7,1.1,2.9c1.2-0.8,2.3-5.5,3.4-14.2C231.8,199.5,231.6,198.7,231.3,198.7z M265.6,215.2c-0.7,0.3-1,0.5-1,0.8
						c0,0.2,0,0.2,0.3,0.5c1,0,1.5-0.3,1.5-0.8C266.3,215.2,266.1,214.9,265.6,215.2z"/>
				</g>
				<g>
					<path class="st0" d="M153.3,240.9c-6.7,0-12.7-1.7-17.8-5.1c-6-3.9-9.4-9.2-10.4-16.2c-0.7-5,0.3-9.9,2.6-14.4l0.1-0.2
						c1.3-1.9,2.7-3.6,4.5-3.7c0.7,0,1.3,0.2,2.2,0.7l0.4,0.2l0.3,0.3c5.4,6.2,10.6,9.4,15.2,9c7-0.4,15.4-5.7,25-15.8
						c7-7.3,17.6-21.9,31.6-43.2l2.1-3.2l2.7-5c0.2-0.7,0.2-1.6-2.1-2.8c-1.2-0.6-2.9-1-4.9-1.1c-1,0-2,0-2.8-0.5
						c-1.6-1-2.6-2.5-2.7-4c-0.1-3.6,4.1-6.4,13.7-8.9c1.5-0.4,3.1-0.9,4.7-1.3c6.1-1.7,12.3-3.5,18.5-5.4l0.1,0
						c10.3-2.6,17.9-3.9,23.8-4.1c2.1,0,3.9,0.2,5.7,0.4l0.4,0.1c4.8,1.5,7.1,4.8,6.2,9.3c-0.6,4-2.8,11.9-6.2,23.8l-0.8,3
						c-4.8,16.3-7.8,29.6-8.8,39.4c-0.1,0.8-0.1,1.6-0.2,2.3c-0.1,1.7-0.2,3-0.2,3.8c0.2,3.3,1.7,6.4,3.8,8c1.2,0.9,2.6,1.3,4,1
						c2.2-0.5,4.5-2.3,6.8-5.4l0.2-0.2c0.5-0.5,1-0.9,1.4-1.2c1-0.5,1.9-0.3,2.5,0c1.3,0.7,1.7,2.2,2,4c0.3,1.4,0.4,3.1,0.2,5.5
						c-1.1,10.1-6.4,18.4-15.5,23.9c-5.5,3.4-11.3,5.2-17.2,5.4c-9.6,0.2-17.2-4.5-21.9-13.7l-0.1-0.2c-0.8-2.1-1.7-4.5-2-7.4
						l-0.3-2.2c0-1.7,0.8-7.6,2.5-17.6c0-0.2-0.1-0.3-0.1-0.4c-0.2,0-0.5,0.2-1.2,0.5l-0.2,0.1l-0.2,0.1c-3.8,1.2-7.9,2.5-12,4.2
						c-0.5,0.4-1.9,1.8-5.8,6.8c-17.1,20.9-33,31.2-48.7,31.5C153.9,240.9,153.6,240.9,153.3,240.9z M129.5,211.4
						c-0.7,2.5-0.8,5-0.5,7.7c0.8,5.8,3.6,10.2,8.6,13.4c4.7,3.1,10.2,4.6,16.5,4.4c14.4-0.3,29.4-10.2,45.7-30.1
						c5-6.4,6.3-7.6,7.3-7.9c4.1-1.6,8.2-3,12.2-4.2c0.5-0.3,1-0.5,1.5-0.7c0,0-0.1,0-0.1,0l-0.3-0.1c-1.1-0.3-1.6-0.8-2-1.2
						l-0.6-0.6l0-0.8c0-0.8,0.3-2,2.1-2.8c-0.6,0.1-1.3,0.1-1.9,0.1c-2,0.1-2.9-1.1-3.3-1.7c-0.7-1.3-0.2-2.8,0.3-4.1l0.1-0.2
						l0.1-0.2c4.9-7.7,9.9-15.7,13.5-22c1.6-2.8,2.7-3.9,4-4.1c0.7-0.1,1.5,0.1,2,0.6c0.9,0.8,1.2,2.3,0.8,3.7c-0.2,1-0.4,2-0.7,2.9
						c1.3-3,2.9-4.7,5.6-4.8l0.8,0l0.6,0.6c0.9,0.9,1.1,2.8,1.2,3.8c0.1,2.6-1.1,5.7-2.3,9.3c-0.6,1.5-1.1,3.1-1.6,4.8
						c-3,10.8-6.2,17.1-13.8,17.3c-0.2,0-0.4,0-0.7,0c0.9,0.7,1.4,1.8,1.7,3.4l0.1,0.3l-0.1,0.3c-2.2,13.2-2.5,16.4-2.5,17.1
						l0.3,1.9c0.3,2.5,1,4.6,1.7,6.3c4.1,7.8,10.2,11.7,18.2,11.5c5.2-0.1,10.3-1.7,15.2-4.8l0,0c8.1-4.9,12.7-11.9,13.6-20.8
						c0.2-1.9,0.2-3.2-0.1-4.2c-2.7,3.2-5.3,5-8.2,5.6c-2.6,0.5-5-0.1-7.2-1.7c-3-2.3-5.1-6.5-5.4-11v-0.1c0-1,0.1-2.3,0.2-4.2
						c0.1-0.7,0.1-1.5,0.2-2.3l0-0.1c1-10,4.1-23.5,9-40.1l0.8-3c3.3-11.8,5.5-19.6,6.1-23.3l0-0.1c0.3-1.5,0.2-3.6-3.3-4.7
						c-1.7-0.2-3.2-0.4-5-0.3c-5.6,0.1-12.9,1.4-22.9,4c-6.2,1.9-12.5,3.7-18.5,5.4c-1.6,0.5-3.2,0.9-4.8,1.3
						c-10.5,2.8-10.8,5-10.8,5c0,0.1,0.2,0.4,0.7,0.7c0.2,0,0.5,0,0.8,0h0.1l0.1,0c0.9,0.1,1.8,0.2,2.6,0.3
						c-0.3-0.4-0.3-0.8-0.3-1.2c0-1.3,1-2.2,2.6-3.2l0.5-0.3l0.5,0c4.8-0.1,11-1.4,18.4-3.8c3.7-1.2,6.9-2.3,9.5-3.2
						c6.9-2.3,8.6-2.9,9.3-3c3.9-1.1,6.7-1.7,8.7-1.7c4.5-0.1,4.8,2.6,4.8,3.1l0,1.1l-1.9,1.3l-0.3,0.1c-11.3,3.1-19.7,5.8-24.7,7.5
						c-9.1,3.3-15.5,4.9-19.8,5c-1,0-2,0-2.9-0.1c4,2.3,4.1,5.3,3.5,7.4l-0.1,0.2l-3,5.6l-2.1,3.3c-14.1,21.6-24.9,36.3-32,43.8
						c-10.4,10.9-19.7,16.6-27.6,17.1c-4.9,0.3-10.2-2.2-15.5-7.3l0.2,0.5c1,3.1,1.2,5.2,1.2,6.2l0,0c0,0.8,0.1,2.8-1.8,3.8L134,219
						l-0.7-0.1c-3.1-0.5-3.5-4-3.7-5.9C129.5,212.4,129.5,211.9,129.5,211.4z M132.5,206.8c1,0,1.7,0.7,2.1,1l0.1,0.1
						c-0.8-0.8-1.5-1.5-2.2-2.4c-0.2,0.2-0.7,0.7-1.3,1.7l0,0C131.5,207,132,206.8,132.5,206.8C132.5,206.8,132.5,206.8,132.5,206.8
						z M208.7,202.6C208.7,202.6,208.6,202.6,208.7,202.6C208.6,202.6,208.7,202.6,208.7,202.6z M239.1,163.9
						c-0.9,1.5-1.8,4.5-2.8,8c-0.4,1.3-0.8,2.7-1.2,4.1c-2,6.6-4.5,11-6.2,13.3c2.2-1.6,4.2-5.3,6.4-13.3c0.5-1.8,1.1-3.4,1.7-5
						C238,168.4,238.9,165.8,239.1,163.9z M224.8,188.1L224.8,188.1L224.8,188.1z M225.7,187c-0.6,0.3-1.3,0.6-2.1,0.8
						c0.5,0,0.9-0.1,1.5-0.1C225.3,187.6,225.5,187.3,225.7,187z M218.7,184.4c0,0.1-0.1,0.2-0.1,0.3c3.5-0.2,6-1.1,7.2-2.7
						c0.7-1.4,2-5.4,4.5-16.4C227,171.2,222.8,177.9,218.7,184.4z M238.9,161.8L238.9,161.8L238.9,161.8z M151.1,223.5l-2-1.9l0-0.8
						c0-1.2,0.6-2.7,3.9-3.3c12.4-5.1,24.5-15,36.1-29.6c4.5-5.9,14.1-20.2,26.1-39.3c3-4.8,4.5-5.4,5.7-5.5l0,0c0,0,0,0,0,0
						c1.2,0,2.4,0.9,2.5,2.9c0,1.3-0.5,2.9-1.2,5.3l0,0.2l-0.1,0.2c-8.7,16.6-17.6,30.2-27.2,41.8c-15.1,18.5-29.6,28.5-42.9,29.9
						L151.1,223.5z M216,154.6c-10.9,17.2-19.5,30.1-23.9,35.7c-4.3,5.4-8.7,10.3-13.2,14.5c4.2-3.8,8.5-8.5,12.9-13.8
						C200.3,180.8,208.2,168.8,216,154.6z M221.4,147L221.4,147L221.4,147z M264.1,218.5l-0.6-0.6c-0.5-0.5-0.8-1-0.9-1.9
						c0-0.8,0.3-2,2.2-2.6c0.8-0.4,1.6-0.3,2.3,0c0.7,0.4,1.2,1.2,1.2,2.2c0,1-0.5,1.9-1.4,2.4c-0.5,0.3-1.2,0.4-2,0.5L264.1,218.5z
						 M264.8,214.6c-0.2,0.2-0.5,0.6-0.5,1.1c0,0.3,0.2,0.8,0.8,1.1c0.3,0.2,0.7,0.2,1,0.2c0.2-0.2,0.5-0.6,0.4-1.2
						c0-0.3-0.2-0.6-0.4-0.9l-1.4,1.4L264.8,214.6z M229,217l-0.9-0.3c-2.4-0.7-2.4-3.6-2.5-4.8c-0.1-2,0.4-4.6,1.1-8.1
						c0.5-3,1.6-7,4.5-7.1l0,0c0,0,0,0,0.1,0c1.9,0,2.4,2.1,2.7,3.5l0.1,0.3l0,0.3c-1.5,12.9-2.9,14.8-4.3,15.6L229,217z M232,200.5
						L232,200.5L232,200.5z"/>
				</g>
			</g>
		</g>
		<g>
			<g>
				<g>
					<path class="st1" d="M248.5,230.2c-5.4,3.3-10.8,5-16.2,5.1c-8.9,0.2-15.7-4.1-20.1-12.6c-0.8-2-1.6-4.2-1.9-6.9l-0.3-2
						c0-1.5,0.8-7.4,2.5-17.6c-0.3-1.7-0.8-2.5-2-2.4c-0.5,0-1.2,0.3-2.2,0.8c-2.7,0.8-6.9,2.1-12.2,4.2c-0.7,0.3-2.9,2.8-6.5,7.3
						c-16.6,20.2-32.1,30.4-47.2,30.8c-6.7,0.2-12.6-1.4-17.7-4.8c-5.5-3.6-8.6-8.4-9.5-14.8c-0.6-4.7,0.3-9.2,2.4-13.2
						c1.2-1.8,2.2-2.8,2.9-2.8c0.2,0,0.8,0.2,1.2,0.5c5.8,6.8,11.6,10.1,16.8,9.7c7.4-0.4,16.2-5.8,26.3-16.5
						c7-7.3,17.5-21.7,31.8-43.5l2.1-3.3l2.8-5.3c0.7-2.2-0.3-4-3.1-5.4c-1.5-0.7-3.5-1.2-5.7-1.3c-0.7,0-1.5,0-1.7-0.2
						c-1.2-0.7-1.8-1.7-1.8-2.4c-0.1-2.5,4.1-4.8,12.2-7c7.6-2.2,15.5-4.3,23.3-6.8c9.6-2.5,17.2-3.9,23.4-4c2,0,3.7,0.2,5.4,0.4
						c3.7,1.2,5.5,3.6,4.9,7c-0.6,4.2-3.2,12.9-7,26.6c-5,16.9-7.9,30.1-8.9,39.8c-0.2,3-0.4,5.2-0.3,6.4c0.4,5.9,4.5,12,10.2,10.9
						c2.7-0.6,5.4-2.6,8-6.1c0.7-0.8,1.2-1,1.5-0.8c0.5,0.2,0.8,1,1.1,2.7c0.3,1.2,0.3,2.7,0.1,4.9C262,217.5,257,225,248.5,230.2z
						 M122.5,213c0-1.2-0.3-3.2-1.1-5.7c-0.3-0.2-0.5-0.5-0.8-0.5c-0.7,0-1.2,1.3-0.9,4c0.3,2.7,0.8,3.9,2.1,4.2
						C122.3,214.7,122.5,214.2,122.5,213z M209,143.2c-0.7,0-2.2,1.5-4.1,4.5c-13.3,21.1-22.2,34.2-26.2,39.4
						c-11.8,14.9-24.1,25-37.1,30.3c-1.7,0.3-2.5,0.8-2.4,1.3l0.8,0.7c12.8-1.3,26.7-11,41.5-29.2c9.8-11.9,18.7-25.7,26.9-41.4
						c0.7-2.2,1.1-3.7,1.1-4.7C209.5,143.4,209.3,143.2,209,143.2z M247.5,121.5c0-0.7-1-1.2-2.8-1.2c-2,0-4.7,0.6-8.4,1.7
						c-0.5,0-6.6,2.1-18.6,6.1c-7.4,2.4-13.8,3.8-18.9,3.9c-1.2,0.8-1.7,1.3-1.7,1.5c0,0.2,0.2,0.2,0.5,0.5c1.7,0.2,3.5,0.4,5.2,0.4
						c4-0.1,10.3-1.7,19.2-4.9c5.4-1.9,13.7-4.5,24.8-7.5L247.5,121.5z M221.5,156.5c-0.5-0.5-1.5,0.5-2.9,3
						c-3.3,5.8-7.8,13-13.5,22.1c-0.5,1.2-0.7,2-0.4,2.5c0.3,0.5,0.8,0.7,1.5,0.7c4.7-0.1,7.9-1.4,9.5-3.7c1.2-2.2,3.2-10,6.1-22.9
						C222,157.4,221.7,156.7,221.5,156.5z M228.7,158.8c-3.7,0.1-4.6,5.5-7.3,14.8c-3,9.7-6.8,14-7.3,14.3c-4.2,0.1-6.2,0.7-6.1,1.6
						c0.2,0.2,0.5,0.5,1.2,0.7c1.7,0.2,3,0.4,4.2,0.4c6.2-0.2,9-5.2,12-15.9c1.6-5.2,3.9-10.2,3.9-13.4
						C229.2,160,228.9,159,228.7,158.8z M219.5,196.8c-1,0-1.9,1.8-2.6,5.5c-0.7,3.5-1.1,6-1,7.7c0,1.7,0.3,2.7,1.1,2.9
						c1.2-0.8,2.3-5.5,3.4-14.2C220,197.5,219.7,196.8,219.5,196.8z M253.7,213.3c-0.7,0.3-1,0.5-1,0.8s0,0.2,0.3,0.5
						c1,0,1.5-0.3,1.5-0.8C254.5,213.2,254.2,213,253.7,213.3z"/>
				</g>
				<g>
					<path class="st1" d="M141.4,239.3c-6.8,0-12.9-1.7-18-5.2c-6.1-3.9-9.5-9.3-10.5-16.5c-0.7-5,0.3-10.1,2.7-14.6l0.1-0.2
						c1.3-2,2.8-3.8,4.8-3.8c0.8,0,1.4,0.3,2.3,0.7l0.4,0.2l0.3,0.4c5.3,6.2,10.5,9.2,14.9,8.9c6.9-0.4,15.2-5.7,24.8-15.7
						c7-7.3,17.6-21.8,31.5-43.2l2.1-3.2l2.7-5c0.2-0.6,0.1-1.3-2-2.4c-1.2-0.5-2.8-0.9-4.8-1.1c-1,0-2.1,0-3-0.6
						c-1.7-1-2.8-2.6-2.8-4.3c-0.1-3.8,4.2-6.7,13.9-9.3c1.6-0.5,3.2-0.9,4.8-1.4c6-1.7,12.2-3.5,18.4-5.3l0.1,0
						c10.3-2.7,17.9-4,23.9-4.1c2.1,0,4,0.2,5.8,0.4l0.2,0l0.2,0.1c4.9,1.5,7.3,5.1,6.5,9.7c-0.6,4-2.8,11.9-6.2,23.8l-0.9,3
						c-4.8,16.3-7.8,29.5-8.8,39.3c-0.1,0.8-0.1,1.6-0.2,2.3c-0.1,1.7-0.2,3-0.2,3.8c0.2,3.1,1.7,6.3,3.7,7.8
						c1.1,0.9,2.4,1.2,3.7,0.9c2.1-0.4,4.3-2.2,6.6-5.2l0.2-0.2c0.6-0.6,1-1,1.5-1.2c1.1-0.6,2.2-0.4,2.9,0.1
						c1.5,0.9,1.8,2.7,2.1,4.2c0.3,1.5,0.4,3.1,0.2,5.6c-1.1,10.3-6.5,18.6-15.6,24.1c-5.6,3.5-11.4,5.3-17.3,5.4
						c-9.7,0.2-17.4-4.6-22.2-13.9l-0.1-0.2c-0.9-2.1-1.7-4.5-2-7.4l-0.3-2.2c0-1.7,0.8-7.6,2.5-17.6c-0.2,0.1-0.5,0.2-0.8,0.4
						l-0.2,0.1l-0.2,0.1c-3.8,1.1-7.8,2.5-11.9,4.1c-0.5,0.4-1.9,1.9-5.7,6.7c-17.2,20.9-33.2,31.3-49,31.7
						C142.1,239.3,141.8,239.3,141.4,239.3z M117.5,211.8c-0.2,1.7-0.3,3.5,0,5.3c0.8,5.8,3.5,10,8.5,13.2
						c4.6,3.1,10.1,4.5,16.3,4.4c14.3-0.3,29.2-10.2,45.5-30c5.3-6.7,6.4-7.6,7.5-8c4.2-1.6,8.3-3.1,12.2-4.2
						c0.2-0.1,0.4-0.2,0.6-0.3c-0.8-0.3-1.3-0.7-1.7-1.1l-0.7-0.7l0-1c0-1.1,0.4-1.8,1.1-2.4c-0.2,0-0.4,0-0.5,0
						c-1.6,0-2.9-0.7-3.6-1.9c-0.8-1.5-0.2-3,0.3-4.4l0.1-0.2l0.1-0.2c4.9-7.7,9.9-15.7,13.5-22c1.7-2.9,2.8-4.1,4.2-4.3
						c0.8-0.1,1.7,0.1,2.3,0.7l0,0c1,0.9,1.3,2.5,0.9,4c0,0.1-0.1,0.3-0.1,0.4c1.1-1.7,2.6-2.7,4.7-2.7l1,0l0.7,0.7
						c1,1,1.2,3,1.2,4.1c0.1,2.6-1.1,5.8-2.4,9.4c-0.6,1.5-1.1,3.1-1.6,4.7c-2.5,9.1-5.5,17.2-14,17.5c0.6,0.7,1,1.7,1.2,3l0.1,0.4
						l-0.1,0.4c-2.2,13.1-2.5,16.3-2.5,17l0.3,1.9c0.3,2.5,1,4.5,1.7,6.2c4,7.7,10,11.4,17.9,11.3c5.2-0.1,10.1-1.7,15-4.7l0,0
						c8-4.8,12.5-11.8,13.4-20.6c0.1-1.4,0.1-2.5,0.1-3.4c-2.6,2.9-5.2,4.6-7.9,5.2c-2.7,0.5-5.2-0.1-7.4-1.8
						c-3.1-2.4-5.2-6.7-5.5-11.2v-0.1c0-1,0.1-2.4,0.2-4.3c0.1-0.7,0.1-1.5,0.2-2.3l0-0.1c1-10.1,4.1-23.6,9-40.2l0.8-3
						c3.3-11.8,5.5-19.5,6.1-23.3l0-0.1c0.3-1.5,0.2-3.3-3.1-4.3c-1.6-0.2-3.2-0.4-4.9-0.3c-0.2,0-0.5,0-0.8,0
						c0.1,0,0.2,0.1,0.3,0.1c1.3,0.6,2.1,1.7,2.1,2.9l0,1.2l-2.1,1.5l-0.4,0.1c-11.3,3.1-19.7,5.8-24.6,7.5
						c-9.1,3.3-15.6,4.9-19.8,5c-0.6,0-1.1,0-1.7,0c3.2,2.3,3.2,5,2.6,7.1l-0.1,0.2l-3,5.6l-2.1,3.3c-14.1,21.6-24.9,36.3-32.1,43.8
						c-10.6,11.1-19.7,16.7-27.8,17.2c-4.7,0.3-9.8-1.9-14.8-6.5c0.8,2.7,1,4.6,1,5.6l0,0c0,0.8,0.1,3-1.9,4.1l-0.7,0.4l-0.8-0.1
						C118.4,216.8,117.8,213.7,117.5,211.8z M120.6,204.1c-0.1,0.1-0.2,0.3-0.4,0.5c0.1,0,0.3,0,0.4,0c0.2,0,0.3,0,0.5,0
						C120.9,204.4,120.7,204.3,120.6,204.1z M217.7,165.6c-3.1,5.2-6.8,11.1-10.4,16.8c3.1-0.2,5.3-1.1,6.4-2.5
						C214.3,178.6,215.4,175,217.7,165.6z M192.9,134.1l0.1,0c0.7,0.1,1.3,0.1,2,0.2c-0.1-0.2-0.1-0.5-0.1-0.7
						c0-1.2,0.7-2.1,1.9-2.9c-4.2,1.6-5,2.7-5.1,3c0.1,0.1,0.2,0.2,0.5,0.4c0.2,0,0.5,0,0.7,0L192.9,134.1z M225.4,122.3
						c-6.2,1.9-12.4,3.7-18.4,5.4c-1.6,0.5-3.3,0.9-4.9,1.4c-0.9,0.2-1.7,0.5-2.4,0.7c4.6-0.2,10.5-1.5,17.4-3.8
						c3.6-1.2,6.7-2.2,9.3-3.1c4.3-1.4,6.6-2.2,7.9-2.6C231.6,120.8,228.6,121.5,225.4,122.3z M139.1,221.9l-2.2-2.1l0-1
						c0-1.1,0.5-2.9,4.1-3.6c12.3-5.1,24.4-15,35.9-29.5c4.5-5.9,14.1-20.2,26.1-39.2c3.1-4.9,4.7-5.6,6-5.6c0.7,0,1.4,0.2,1.9,0.7
						c0.6,0.6,1,1.4,1,2.5c0,1.4-0.5,3-1.2,5.5l-0.1,0.2l-0.1,0.2c-8.7,16.6-17.6,30.3-27.2,41.8c-15.2,18.5-29.7,28.7-43.1,30
						L139.1,221.9z M196.9,164.5c-3.5,5.4-6.6,10.1-9.3,14.1C190.8,174.2,193.9,169.5,196.9,164.5z M252.1,216.9l-0.7-0.7
						c-0.6-0.6-1-1.1-1-2.1c0-0.8,0.3-2.1,2.4-3c0.9-0.4,1.8-0.4,2.6,0.1c0.8,0.5,1.3,1.4,1.4,2.5c0,0.3,0,3.1-3.7,3.2L252.1,216.9z
						 M253,212.3c-0.4,0.2-0.8,0.8-0.8,1.5c0,0.4,0.3,1,0.9,1.4c0.5,0.3,1,0.3,1.3,0.2c0.3-0.2,0.7-0.7,0.6-1.5
						c0-0.4-0.2-0.8-0.5-1.1l-1.6,1.7L253,212.3z M217.2,215.4l-1-0.3c-2.6-0.8-2.7-3.8-2.7-5.1c0-2,0.4-4.6,1.1-8.2
						c0.3-2,1.3-7.3,4.8-7.4l0,0c0,0,0,0,0.1,0c2.2,0,2.7,2.3,3,3.8l0.1,0.4l0,0.4c-1.5,13-3,15-4.4,15.8L217.2,215.4z M215.4,211.2
						L215.4,211.2L215.4,211.2z"/>
				</g>
			</g>
		</g>
	</g>
</g>
</svg>
