<?xml version="1.0" encoding="UTF-8" standalone="no"?>
<svg
   xmlns:dc="http://purl.org/dc/elements/1.1/"
   xmlns:cc="http://creativecommons.org/ns#"
   xmlns:rdf="http://www.w3.org/1999/02/22-rdf-syntax-ns#"
   xmlns:svg="http://www.w3.org/2000/svg"
   xmlns="http://www.w3.org/2000/svg"
   xmlns:sodipodi="http://sodipodi.sourceforge.net/DTD/sodipodi-0.dtd"
   xmlns:inkscape="http://www.inkscape.org/namespaces/inkscape"
   id="Capa_1"
   data-name="Capa 1"
   viewBox="0 0 612 611.64"
   version="1.1"
   sodipodi:docname="logo_mini.svg"
   inkscape:version="0.92.3 (2405546, 2018-03-11)">
  <metadata
     id="metadata67">
    <rdf:RDF>
      <cc:Work
         rdf:about="">
        <dc:format>image/svg+xml</dc:format>
        <dc:type
           rdf:resource="http://purl.org/dc/dcmitype/StillImage" />
      </cc:Work>
    </rdf:RDF>
  </metadata>
  <sodipodi:namedview
     pagecolor="#ffffff"
     bordercolor="#666666"
     borderopacity="1"
     objecttolerance="10"
     gridtolerance="10"
     guidetolerance="10"
     inkscape:pageopacity="0"
     inkscape:pageshadow="2"
     inkscape:window-width="1299"
     inkscape:window-height="713"
     id="namedview65"
     showgrid="false"
     inkscape:zoom="0.38584788"
     inkscape:cx="-148.84246"
     inkscape:cy="305.82001"
     inkscape:window-x="67"
     inkscape:window-y="27"
     inkscape:window-maximized="1"
     inkscape:current-layer="Capa_1" />
  <defs
     id="defs4">
    <style
       id="style2">.cls-1{fill:#1d1e1c;}.cls-2,.cls-3,.cls-5{fill:none;stroke-miterlimit:10;}.cls-2,.cls-5{stroke:#e20e7e;}.cls-2{stroke-width:6.64px;}.cls-3{stroke:#fff;}.cls-3,.cls-5{stroke-width:1.66px;}.cls-4{opacity:0.5;}.cls-6{fill:#fff;}</style>
  </defs>
  <title
     id="title6">Logo Mini Skateworkshop</title>
  <path
     class="cls-1"
     d="M611,305.82c0,168.89-136.94,305.82-305.82,305.82S-.62,474.71-.62,305.82,136.29,0,305.2,0,611,136.92,611,305.82Z"
     id="path8"
     style="fill:#ffffff;fill-opacity:0" />
  <path
     class="cls-2"
     d="M113.93,250.61c2.07-3.62,4.14-5.18,11.39-7.51,3.37-1.29,6-5.17,7.25-16.31.26-2.84.52-6.21,1.55-30.28l.26-1.29.52-6.48.26-8.8c1-25.88,1.29-37,1-45.55v-1.82l-1-11.39c-.52-6.47-1.55-9.83-3.37-12.16l-.26-.26-9-6.47c-9.32-6.21-10.62-12.43-4.92-21,3.62-4.66,10.09-8.8,23-10.35l4.41-.52,6.21-.52a116.3,116.3,0,0,1,13.46-.26c29.51,1.56,28.21,2.59,55.65,53.33,3.88,7.76,8,15.79,11.91,23.81a3.41,3.41,0,0,1,.77,1c10.1,12.94,9.32,13.2,16.05,3.1,3.11-4.92,8.29-14.75,24.33-48.4.78-1.56,1.82-3.11,2.85-4.92,13.2-20.45,18.38-24.33,38-26.92,27.18-3.37,41.68,1.81,47.11,9.58,7.25,10.09,5.18,15.27-5.95,23.29-5.95,4.14-8.28,13.46-9.32,69.37,0,3.63,0,6.73.26,10.88,4.14,63.93,3.37,49.18,13.46,56.68a15.71,15.71,0,0,1,4.14,4.15c6.47,7.5,3.37,17.08-8,21.22-12.94,4.4-20.45,5.18-57.47,3.37-8.54-.26-12.94-.78-16.3-1.82-15-3.62-19.68-9.83-18.12-16.82,1.29-4.92,2.84-6.73,11.39-12.43,1.55-1.29,3.1-3.1,4.65-9.57v-.52l.52-18.38.26-22c-.78-4.92-5.43-7-8.8-5.44a12.81,12.81,0,0,0-3.11,3.37l-1.55,2.07-2.59,5.69-1,2.33-7,12.43c-2.59,5.18-5.18,11.13-19.42,43.74l-3.62,7.25a12.13,12.13,0,0,1-2.33,3.11c-3.88,4.14-9.58,3.88-11.39.77-2.59-4.91-5.43-10.61-13.46-26.66-1.29-2.59-2.59-5.43-3.88-8-8.28-17.34-10.61-22.52-12.43-27.18-6.73-16.57-8.28-19.42-10.61-21-2.59-1.81-5.18-1.55-6.47.26-2.07,3.11-2.85,7.51-1.29,24.07.25,4.4.51,9.84.25,21.23-.25,10.87.52,12.94,8,16.57a74.63,74.63,0,0,1,7.51,4.91c4.14,2.85,4.4,9.58-2.33,15.79-4.4,4.4-13.72,7.25-36,7.25-13.46,0-21.23-1.55-25.11-3.1-7.77-3.11-10.88-7.25-11.39-11.14A9.8,9.8,0,0,1,113.93,250.61Z"
     id="path10"
     style="fill:#ffffff;fill-opacity:0;stroke:#fffffe;stroke-opacity:1" />
  <path
     class="cls-2"
     d="M422.74,71c1.55,0,3.11-.26,4.66-.26a164.87,164.87,0,0,1,29-.78c22.52,2.07,31.06,5.7,35.72,10.1,5.7,6.47,4.66,16.56-2.07,20.45-2.07,1-4.14,2.07-6.21,3.36-6.47,3.11-7.51,13.46-5.69,108.72a34.26,34.26,0,0,0,.25,5.18c.78,11.64,1,12.94,10.36,18.89a18.3,18.3,0,0,1,4.92,3.37c7.24,6.21,7.24,14.75.77,19.15-2.59,2.07-4.92,2.85-12.94,5.7-8.54,2.84-26.14,5.43-42.71,5.43a150.27,150.27,0,0,1-19.15-1.55c-17.35-3.11-23.3-5.7-26.93-9.58-6.21-5.95-5.95-15.53-.51-19.15,2.33-1.3,4.66-2.85,7.25-4.14s4.65-5.44,5.95-17.35V216.7C406.17,109,410.06,116.27,390.64,102c-1.29-.78-2.33-1.55-3.62-2.33-.78-.52-1.29-1.55-2.07-5.7C383.14,80.8,390.38,75.11,422.74,71Z"
     id="path12"
     style="fill:#ffffff;fill-opacity:0;stroke:#fffffe;stroke-opacity:1" />
  <path
     class="cls-3"
     d="M113.93,250.61c2.07-3.62,4.14-5.18,11.39-7.51,3.37-1.29,6-5.17,7.25-16.31.26-2.84.52-6.21,1.55-30.28l.26-1.29.52-6.48.26-8.8c1-25.88,1.29-37,1-45.55v-1.82l-1-11.39c-.52-6.47-1.55-9.83-3.37-12.16l-.26-.26-9-6.47c-9.32-6.21-10.62-12.43-4.92-21,3.62-4.66,10.09-8.8,23-10.35l4.41-.52,6.21-.52a116.3,116.3,0,0,1,13.46-.26c29.51,1.56,28.21,2.59,55.65,53.33,3.88,7.76,8,15.79,11.91,23.81a3.41,3.41,0,0,1,.77,1c10.1,12.94,9.32,13.2,16.05,3.1,3.11-4.92,8.29-14.75,24.33-48.4.78-1.56,1.82-3.11,2.85-4.92,13.2-20.45,18.38-24.33,38-26.92,27.18-3.37,41.68,1.81,47.11,9.58,7.25,10.09,5.18,15.27-5.95,23.29-5.95,4.14-8.28,13.46-9.32,69.37,0,3.63,0,6.73.26,10.88,4.14,63.93,3.37,49.18,13.46,56.68a15.71,15.71,0,0,1,4.14,4.15c6.47,7.5,3.37,17.08-8,21.22-12.94,4.4-20.45,5.18-57.47,3.37-8.54-.26-12.94-.78-16.3-1.82-15-3.62-19.68-9.83-18.12-16.82,1.29-4.92,2.84-6.73,11.39-12.43,1.55-1.29,3.1-3.1,4.65-9.57v-.52l.52-18.38.26-22c-.78-4.92-5.43-7-8.8-5.44a12.81,12.81,0,0,0-3.11,3.37l-1.55,2.07-2.59,5.69-1,2.33-7,12.43c-2.59,5.18-5.18,11.13-19.42,43.74l-3.62,7.25a12.13,12.13,0,0,1-2.33,3.11c-3.88,4.14-9.58,3.88-11.39.77-2.59-4.91-5.43-10.61-13.46-26.66-1.29-2.59-2.59-5.43-3.88-8-8.28-17.34-10.61-22.52-12.43-27.18-6.73-16.57-8.28-19.42-10.61-21-2.59-1.81-5.18-1.55-6.47.26-2.07,3.11-2.85,7.51-1.29,24.07.25,4.4.51,9.84.25,21.23-.25,10.87.52,12.94,8,16.57a74.63,74.63,0,0,1,7.51,4.91c4.14,2.85,4.4,9.58-2.33,15.79-4.4,4.4-13.72,7.25-36,7.25-13.46,0-21.23-1.55-25.11-3.1-7.77-3.11-10.88-7.25-11.39-11.14A9.8,9.8,0,0,1,113.93,250.61Z"
     id="path14"
     style="fill:#ffffff;fill-opacity:0;stroke:#fffffe;stroke-opacity:1" />
  <path
     class="cls-3"
     d="M422.74,71c1.55,0,3.11-.26,4.66-.26a164.87,164.87,0,0,1,29-.78c22.52,2.07,31.06,5.7,35.72,10.1,5.7,6.47,4.66,16.56-2.07,20.45-2.07,1-4.14,2.07-6.21,3.36-6.47,3.11-7.51,13.46-5.69,108.72a34.26,34.26,0,0,0,.25,5.18c.78,11.64,1,12.94,10.36,18.89a18.3,18.3,0,0,1,4.92,3.37c7.24,6.21,7.24,14.75.77,19.15-2.59,2.07-4.92,2.85-12.94,5.7-8.54,2.84-26.14,5.43-42.71,5.43a150.27,150.27,0,0,1-19.15-1.55c-17.35-3.11-23.3-5.7-26.93-9.58-6.21-5.95-5.95-15.53-.51-19.15,2.33-1.3,4.66-2.85,7.25-4.14s4.65-5.44,5.95-17.35V216.7C406.17,109,410.06,116.27,390.64,102c-1.29-.78-2.33-1.55-3.62-2.33-.78-.52-1.29-1.55-2.07-5.7C383.14,80.8,390.38,75.11,422.74,71Z"
     id="path16"
     style="fill:#ffffff;fill-opacity:0;stroke:#fffffe;stroke-opacity:1" />
  <g
     class="cls-4"
     id="g22"
     style="fill:#ffffff;fill-opacity:0;stroke:#fffffe;stroke-opacity:1">
    <path
       class="cls-5"
       d="M113.93,250.61c2.07-3.63,4.15-5.18,11.39-7.51,3.37-1.29,6-5.17,7.25-16.31.26-2.84.52-6.21,1.55-30.28l.26-1.3.52-6.47.26-8.8c1-25.88,1.29-37,1-45.55v-1.82l-1-11.39c-.52-6.47-1.55-9.83-3.37-12.16l-.25-.26-9.06-6.47c-9.32-6.21-10.62-12.43-4.92-21,3.62-4.66,10.09-8.8,23-10.35l4.4-.52,6.21-.52a116.3,116.3,0,0,1,13.46-.26c29.51,1.56,28.21,2.59,55.65,53.33,3.88,7.76,8,15.79,11.91,23.81a3.41,3.41,0,0,1,.77,1c10.1,12.94,9.32,13.2,16.05,3.1,3.11-4.92,8.29-14.75,24.34-48.4.77-1.56,1.81-3.11,2.84-4.92,13.2-20.45,18.38-24.33,38-26.92,27.18-3.37,41.68,1.81,47.11,9.58,7.25,10.09,5.18,15.27-5.95,23.29-5.95,4.14-8.28,13.46-9.32,69.37,0,3.63,0,6.73.26,10.88,4.14,63.93,3.37,49.18,13.46,56.68a15.71,15.71,0,0,1,4.14,4.15c6.47,7.5,3.37,17.08-8,21.22-12.94,4.4-20.45,5.18-57.47,3.37-8.54-.26-12.94-.78-16.3-1.82-15-3.62-19.68-9.83-18.12-16.82,1.29-4.92,2.84-6.73,11.39-12.43,1.55-1.29,3.1-3.1,4.66-9.57v-.52l.51-18.38.26-22c-.77-4.92-5.43-7-8.8-5.44a12.81,12.81,0,0,0-3.11,3.37l-1.55,2.07-2.59,5.69-1,2.33-7,12.43c-2.59,5.17-5.18,11.13-19.42,43.74l-3.62,7.25a12.13,12.13,0,0,1-2.33,3.11c-3.88,4.14-9.58,3.88-11.39.77-2.59-4.91-5.43-10.61-13.46-26.66-1.29-2.59-2.59-5.43-3.88-8-8.28-17.35-10.61-22.52-12.43-27.18-6.73-16.57-8.28-19.42-10.61-21-2.59-1.81-5.18-1.55-6.47.26-2.07,3.11-2.85,7.51-1.29,24.07.25,4.4.51,9.84.25,21.23-.25,10.87.52,12.94,8,16.57a74.63,74.63,0,0,1,7.51,4.91c4.14,2.85,4.4,9.58-2.33,15.79-4.4,4.4-13.72,7.25-36,7.25-13.46,0-21.23-1.55-25.11-3.1-7.77-3.11-10.87-7.25-11.39-11.14A9.8,9.8,0,0,1,113.93,250.61Z"
       id="path18"
       style="fill:#ffffff;fill-opacity:0;stroke:#fffffe;stroke-opacity:1" />
    <path
       class="cls-5"
       d="M422.74,71c1.55,0,3.11-.26,4.66-.26a164.87,164.87,0,0,1,29-.78c22.52,2.07,31.06,5.7,35.72,10.1,5.7,6.47,4.66,16.56-2.07,20.45-2.07,1-4.14,2.07-6.21,3.36-6.47,3.11-7.51,13.46-5.69,108.72a34.06,34.06,0,0,0,.25,5.17c.78,11.65,1,13,10.36,18.9a18.3,18.3,0,0,1,4.92,3.37c7.24,6.21,7.24,14.75.77,19.15-2.59,2.07-4.92,2.85-12.94,5.7-8.54,2.84-26.14,5.43-42.71,5.43a152.11,152.11,0,0,1-19.15-1.55c-17.35-3.11-23.3-5.7-26.93-9.58-6.21-5.95-5.95-15.53-.51-19.15,2.33-1.3,4.66-2.85,7.25-4.15s4.65-5.43,5.95-17.34V216.7C406.17,109,410.06,116.27,390.64,102c-1.29-.78-2.33-1.55-3.62-2.33-.78-.52-1.29-1.55-2.07-5.7C383.14,80.8,390.38,75.11,422.74,71Z"
       id="path20"
       style="fill:#ffffff;fill-opacity:0;stroke:#fffffe;stroke-opacity:1" />
  </g>
  <path
     class="cls-2"
     d="M150.23,287.7a158.15,158.15,0,0,1,18.59-1.29c26.58,0,25-.51,44.13,16.78l46.72,42.59c15.48,15.22,20.39,19.1,25,21.16,3.62,1.81,8,0,9-3.1a20.29,20.29,0,0,0,1-5.68l.26-8.51v-.78l-.52-12.64c-.77-13.68-1.55-15-10.84-19.88-11.61-5.68-13.68-9.81-8.26-20.65,2.07-4.13,7.75-7.74,16-8.26l12.91-1h3.1c16-.51,27.61,1,32.52,2.32,12.9,3.88,17,10.33,14.71,19.11-1.81,5.67-3.36,7.22-11.61,11.09-3.62,2.07-7,8.52-8,26.85l-1.29,26.58c-.51,17.81-.77,33-1,48.78v13.42l-.26,11.1c-.26,11.87-1,18.33-2.32,22.71-5.94,21.94-10.84,24.78-23,16.78l-8.78-5.68-.51-.26c-6.2-4.64-23.75-19.35-50.33-44.39-8.78-8.52-17.3-17-25.3-26.07a108.84,108.84,0,0,0-13.68-12.9c-5.67-4.65-12.64-2.58-14.71,4.13a24,24,0,0,0-1,7.48l-.52,11.36v1c0,7.49.26,11.62.78,14.2,2.58,17.81,3.09,18.32,15.23,23.48,2.06,1,4.13,3.88,4.13,9.3.25,9.55-8,16.77-29.17,19.09a94.94,94.94,0,0,1-15.23.52c-21.94-1.29-29.68-4.39-34.07-9-5.68-5.68-5.42-15-.77-18.07a79.67,79.67,0,0,1,9-5.94c6.2-3.87,9.29-14.71,9.29-69.43,0-17.8-.51-24.77-1.55-32.52-3.09-27.1-4.38-29.94-19.61-36.39-1.81-.77-3.61-2.84-4.65-7C123.13,298.54,130.1,290.8,150.23,287.7Z"
     id="path24"
     style="fill:#ffffff;fill-opacity:0;stroke:#fffffe;stroke-opacity:1" />
  <path
     class="cls-2"
     d="M410.66,287.7c1.55,0,3.1-.26,4.65-.26a164.64,164.64,0,0,1,28.9-.77c22.46,2.06,31,5.68,35.62,10.07,5.68,6.45,4.65,16.51-2.06,20.39-2.07,1-4.13,2.06-6.2,3.35-6.45,3.1-7.48,13.42-5.68,108.4a32.76,32.76,0,0,0,.26,5.17c.78,11.61,1,12.9,10.33,18.84a18.14,18.14,0,0,1,4.9,3.35c7.23,6.2,7.23,14.72.78,19.1-2.59,2.07-4.91,2.84-12.91,5.68-8.52,2.84-26.07,5.42-42.59,5.42a149.62,149.62,0,0,1-19.1-1.55c-17.29-3.09-23.23-5.68-26.84-9.55-6.19-5.93-5.94-15.48-.51-19.1,2.32-1.29,4.64-2.84,7.22-4.13s4.65-5.42,5.94-17.29V433c.77-107.37,4.64-100.14-14.71-114.34-1.29-.77-2.33-1.54-3.62-2.32-.77-.51-1.29-1.55-2.06-5.68C371.17,297.51,378.4,291.83,410.66,287.7Z"
     id="path26"
     style="fill:#ffffff;fill-opacity:0;stroke:#fffffe;stroke-opacity:1" />
  <path
     class="cls-3"
     d="M150.23,287.7a158.15,158.15,0,0,1,18.59-1.29c26.58,0,25-.51,44.13,16.78l46.72,42.59c15.48,15.22,20.39,19.1,25,21.16,3.62,1.81,8,0,9-3.1a20.29,20.29,0,0,0,1-5.68l.26-8.51v-.78l-.52-12.64c-.77-13.68-1.55-15-10.84-19.88-11.61-5.68-13.68-9.81-8.26-20.65,2.07-4.13,7.75-7.74,16-8.26l12.91-1h3.1c16-.51,27.61,1,32.52,2.32,12.9,3.88,17,10.33,14.71,19.11-1.81,5.67-3.36,7.22-11.61,11.09-3.62,2.07-7,8.52-8,26.85l-1.29,26.58c-.51,17.81-.77,33-1,48.78v13.42l-.26,11.1c-.26,11.87-1,18.33-2.32,22.71-5.94,21.94-10.84,24.78-23,16.78l-8.78-5.68-.51-.26c-6.2-4.64-23.75-19.35-50.33-44.39-8.78-8.52-17.3-17-25.3-26.07a108.84,108.84,0,0,0-13.68-12.9c-5.67-4.65-12.64-2.58-14.71,4.13a24,24,0,0,0-1,7.48l-.52,11.36v1c0,7.49.26,11.62.78,14.2,2.58,17.81,3.09,18.32,15.23,23.48,2.06,1,4.13,3.88,4.13,9.3.25,9.55-8,16.77-29.17,19.09a94.94,94.94,0,0,1-15.23.52c-21.94-1.29-29.68-4.39-34.07-9-5.68-5.68-5.42-15-.77-18.07a79.67,79.67,0,0,1,9-5.94c6.2-3.87,9.29-14.71,9.29-69.43,0-17.8-.51-24.77-1.55-32.52-3.09-27.1-4.38-29.94-19.61-36.39-1.81-.77-3.61-2.84-4.65-7C123.13,298.54,130.1,290.8,150.23,287.7Z"
     id="path28"
     style="fill:#ffffff;fill-opacity:0;stroke:#fffffe;stroke-opacity:1" />
  <path
     class="cls-3"
     d="M410.66,287.7c1.55,0,3.1-.26,4.65-.26a164.64,164.64,0,0,1,28.9-.77c22.46,2.06,31,5.68,35.62,10.07,5.68,6.45,4.65,16.51-2.06,20.39-2.07,1-4.13,2.06-6.2,3.35-6.45,3.1-7.48,13.42-5.68,108.4a32.76,32.76,0,0,0,.26,5.17c.78,11.61,1,12.9,10.33,18.84a18.14,18.14,0,0,1,4.9,3.35c7.23,6.2,7.23,14.72.78,19.1-2.59,2.07-4.91,2.84-12.91,5.68-8.52,2.84-26.07,5.42-42.59,5.42a149.62,149.62,0,0,1-19.1-1.55c-17.29-3.09-23.23-5.68-26.84-9.55-6.19-5.93-5.94-15.48-.51-19.1,2.32-1.29,4.64-2.84,7.22-4.13s4.65-5.42,5.94-17.29V433c.77-107.37,4.64-100.14-14.71-114.34-1.29-.77-2.33-1.54-3.62-2.32-.77-.51-1.29-1.55-2.06-5.68C371.17,297.51,378.4,291.83,410.66,287.7Z"
     id="path30"
     style="fill:#ffffff;fill-opacity:0;stroke:#fffffe;stroke-opacity:1" />
  <g
     class="cls-4"
     id="g36"
     style="fill:#ffffff;fill-opacity:0;stroke:#fffffe;stroke-opacity:1">
    <path
       class="cls-5"
       d="M150.23,287.7a158.15,158.15,0,0,1,18.59-1.29c26.58,0,25-.51,44.13,16.78l46.72,42.58c15.48,15.23,20.39,19.1,25,21.17,3.62,1.81,8,0,9-3.1a20.29,20.29,0,0,0,1-5.68l.26-8.51v-.78l-.52-12.65c-.77-13.68-1.55-15-10.84-19.87-11.61-5.68-13.68-9.81-8.26-20.65,2.07-4.13,7.75-7.74,16-8.26l12.91-1h3.1c16-.51,27.61,1,32.52,2.32,12.9,3.88,17,10.33,14.71,19.1-1.81,5.68-3.36,7.23-11.61,11.1-3.62,2.07-7,8.52-8,26.84l-1.29,26.59c-.51,17.81-.77,33-1,48.78v13.42l-.26,11.1c-.25,11.87-1,18.33-2.32,22.71-5.94,21.94-10.84,24.78-23,16.78l-8.78-5.68-.51-.26c-6.2-4.64-23.75-19.35-50.33-44.39-8.78-8.52-17.3-17-25.3-26.07a108.84,108.84,0,0,0-13.68-12.9c-5.67-4.65-12.64-2.58-14.71,4.13a24,24,0,0,0-1,7.48l-.52,11.36v1c0,7.49.26,11.61.78,14.2,2.58,17.8,3.09,18.32,15.23,23.48,2.06,1,4.13,3.87,4.13,9.29.25,9.55-8,16.78-29.17,19.1a94.94,94.94,0,0,1-15.23.52c-21.94-1.29-29.68-4.39-34.07-9-5.68-5.68-5.42-15-.77-18.07a78.34,78.34,0,0,1,9-5.94c6.2-3.87,9.29-14.71,9.29-69.43,0-17.8-.51-24.77-1.55-32.52-3.09-27.1-4.38-29.94-19.61-36.39-1.81-.77-3.61-2.84-4.65-7C123.13,298.54,130.1,290.8,150.23,287.7Z"
       id="path32"
       style="fill:#ffffff;fill-opacity:0;stroke:#fffffe;stroke-opacity:1" />
    <path
       class="cls-5"
       d="M410.66,287.7c1.55,0,3.1-.26,4.65-.26a164.64,164.64,0,0,1,28.9-.77c22.46,2.06,31,5.68,35.62,10.07,5.68,6.45,4.65,16.51-2.06,20.38-2.07,1-4.13,2.07-6.2,3.36-6.45,3.1-7.48,13.42-5.67,108.4a34.06,34.06,0,0,0,.25,5.17c.78,11.61,1,12.9,10.33,18.84a18.14,18.14,0,0,1,4.9,3.35c7.23,6.2,7.23,14.71.78,19.1-2.58,2.07-4.91,2.84-12.91,5.68-8.52,2.84-26.07,5.42-42.59,5.42a149.62,149.62,0,0,1-19.1-1.55c-17.29-3.1-23.23-5.68-26.84-9.55-6.19-5.93-5.93-15.48-.51-19.1,2.32-1.29,4.64-2.84,7.22-4.13s4.65-5.42,5.94-17.29V433c.77-107.37,4.64-100.14-14.71-114.34-1.29-.77-2.33-1.55-3.62-2.32-.77-.51-1.29-1.55-2.06-5.68C371.17,297.51,378.4,291.83,410.66,287.7Z"
       id="path34"
       style="fill:#ffffff;fill-opacity:0;stroke:#fffffe;stroke-opacity:1" />
  </g>
  <path
     class="cls-6"
     d="M115.71,524.05a1.68,1.68,0,0,1,1.92-1.59c.83.1,1.36.53,2.36,1.82l.73,1,.16.23a4.82,4.82,0,0,0,1.73,1.36c.33.14.63.27.93.37,2.62.86,4.21.2,4.64-.8a1.15,1.15,0,0,0-.46-1.49c-.8-.43-1.06-.47-4.88-1.66a9.49,9.49,0,0,1-1.29-.46,11.47,11.47,0,0,1-2.62-1.6,8.31,8.31,0,0,1-3.05-5.14,6.91,6.91,0,0,1,1.75-6.07,9.82,9.82,0,0,1,3.09-2.29,9.56,9.56,0,0,1,2-.76c2.63-.7,3.85-.63,7.3.07.6.13.8.06,2.09-.34s2.39.27,4.15,3.12a3.6,3.6,0,0,1,.46,3.32,2.16,2.16,0,0,1-3.08,1.53c-.86-.3-1.43-.73-3.45-2.59-.27-.27-.66-.43-1.86-.66a3.82,3.82,0,0,0-2,.23,1.23,1.23,0,0,0-.73,1.69,1.85,1.85,0,0,0,1,1.06,16.28,16.28,0,0,0,3.45,1,11.38,11.38,0,0,1,3.81,1.23c3.25,1.79,4.48,4.41,4,8.06a8,8,0,0,1-.86,2.52c-1.33,2.52-3.59,4.15-7.7,5a19.36,19.36,0,0,1-7.66-.17c-4-1-4.81-1.69-5.68-5.7a10.44,10.44,0,0,1-.23-1.43C115.71,524.68,115.71,524.35,115.71,524.05Z"
     id="path38" />
  <path
     class="cls-6"
     d="M142.12,527.8a3.6,3.6,0,0,1,.36-.33c.47-.33.5-1.06.53-10.49,0-.89,0-1.69-.1-2.48l0-.33-.13-1.07c-.2-1.46-.07-1.26-1.76-2.19a2.35,2.35,0,0,1-.46-.43,1.74,1.74,0,0,1,.13-2.12c.4-.5,1-.8,2.59-1.16a16.65,16.65,0,0,1,2.12-.27c1-.06,1.89-.06,2.82,0a10.59,10.59,0,0,1,3.78.63,1.88,1.88,0,0,1,.76,3.28c-1.46,1.7-1.16,1.13-1.36,3.55a5.61,5.61,0,0,0,0,1.3.38.38,0,0,0,.53.26c.4-.13,1-.53,2.19-2.12,1.42-1.86,1.62-2.42,1.56-2.75v0l-.3-.36a1.88,1.88,0,0,1-.07-2.12c.5-1,1.69-1.5,5.81-1.56a16.12,16.12,0,0,1,4.28.3c2.05.56,2.65,1.79,1.85,3.05-.36.59-1.16.93-3.41.93a5.21,5.21,0,0,0-3.22,1.85c-3.25,3.35-3.22,2.46,1.39,7.77l4.35,5c2,2.22,1.66,2,3.28,2.71a3.69,3.69,0,0,1,.5.34,1.77,1.77,0,0,1,0,3c-1,.69-.6.59-4.45.33a22.69,22.69,0,0,0-4.67.3,1.94,1.94,0,0,1-1.43-.37h0l-.53-.83c-.4-.46-.83-1-2.43-3l-.13-.16L153.63,525a4.65,4.65,0,0,0-.86-.76.63.63,0,0,0-1,.39,4.23,4.23,0,0,0,0,1.8c.13,1.72.1,1.69.86,2.09a4.61,4.61,0,0,1,.73.49c1,.83.77,2.23-.59,3-.73.36-2.16.63-5.58.6a19.13,19.13,0,0,1-5.2-.47c-1.13-.33-1.6-.86-1.73-1.46C140.13,529.86,140.39,529.36,142.12,527.8Z"
     id="path40" />
  <path
     class="cls-6"
     d="M172.64,528.69c2-1,2-1.19,6.14-11.94,1.16-3,1.26-3.45,1.26-5.21,0-2,.17-2.62.86-3.41.93-1.1,2.36-1.53,4.68-1s3.81,2.25,8.42,11.71c.44.79.83,1.62,1.2,2.45l2.39,5v.07l.46.83.5.89a4.33,4.33,0,0,0,1.53.63,1.37,1.37,0,0,1,.79,1.26c.1,1.1-.63,1.79-3.05,2.32a21.11,21.11,0,0,1-4.81.2c-4.18-.16-4.88-.3-5.81-.76a1.59,1.59,0,0,1-.43-2.49l0,0,.83-.5a3.19,3.19,0,0,0,.59-.43,1,1,0,0,0-.43-1.49,7.79,7.79,0,0,0-3.08-.37c-4.05,0-4.51.07-5.15.9-.29.36-.23,1-.06,1.13.4.16.79.29,1.23.46a1.51,1.51,0,0,1,.63,2.36c-.3.46-.8.72-2.26,1.06a12.67,12.67,0,0,1-1.53.16c-3,.14-4.41-.06-5.14-.36A2.21,2.21,0,0,1,171,531C170.68,529.92,171,529.52,172.64,528.69Zm9.52-6.93,1.56.07a15.32,15.32,0,0,0,1.66,0c.9,0,1.06-.17,1-.27a2.56,2.56,0,0,1-.17-.43L185,518.61l-.1-.13,0-.1-.6-.76c-.5-.64-.86-.67-1-.47a6.62,6.62,0,0,0-.83,1.83c-.9,2.38-.93,2.62-.9,2.68s.13.07.43.07Z"
     id="path42" />
  <path
     class="cls-6"
     d="M199,510c2-3.41,2.69-3.68,5.61-2.88a47.48,47.48,0,0,0,5.64.39h.43l3.19-.19c4-.2,3.65-.17,4.81-.5.2-.07.39-.1.56-.17.86-.33,2.55.5,3.88,2.95a8.28,8.28,0,0,1,.76,2.26,10,10,0,0,1,.17,1.66,2.56,2.56,0,0,1-3.08,2.72,3.48,3.48,0,0,1-2.49-1.69,6.33,6.33,0,0,1-.47-.9c-.49-1.06-1-1.46-1.36-1.52-.56-.1-1.13.33-1.13.72-.13,6-.13,9.16,0,11.42v.13l.07,1.36c.1,1.36.4,1.82,1.56,2.32,1.72.7,2.09,1.66,1.19,2.82a4.52,4.52,0,0,1-2.62,1.29,21.43,21.43,0,0,1-5,.44c-3.48,0-4.84-.27-5.74-.63a4.16,4.16,0,0,1-1.49-1,1.53,1.53,0,0,1,.13-2.45c.36-.17.7-.3,1-.43,1.26-.43,1.42-.73,1.56-2.42l.26-3.45v-.4c.1-2.19.1-4.35.07-6.5v-.07l-.13-1.69a2.57,2.57,0,0,0-.34-1,.82.82,0,0,0-1.32-.2,5.05,5.05,0,0,0-.67.83l-.93,1.32-.13.17a1.68,1.68,0,0,1-.46.53c-1.59,1.43-3,1.39-4.08.1a3.25,3.25,0,0,1-.47-2.56A6.52,6.52,0,0,1,199,510Z"
     id="path44" />
  <path
     class="cls-6"
     d="M227.29,506.9a16,16,0,0,1,3.11,0c3,.14,6.21.1,10.19-.1,2-.13,2.78-.16,3.38-.23,2.62-.26,3.58.27,4.28,3.55.4,2.06-.07,3.42-1,4-1.13.66-1.66.4-3.42-1.59-.16-.17-.26-.33-.4-.5a6.34,6.34,0,0,0-4-1.16c-2.29,0-3,.27-3.22.83L236,513a18.59,18.59,0,0,0-.13,2.82,1.5,1.5,0,0,0,2.22,1.39c1.06-.33,1.16-.59,1.26-2.58a1.46,1.46,0,0,1,1.26-1.23c1.1-.27,2.16.56,2.69,3a13.79,13.79,0,0,1,.23,2.06,12.72,12.72,0,0,1-.63,4.77c-.8,1.7-1.89,2.09-2.89,1.4-.53-.4-.59-.6-.66-2a.82.82,0,0,0-.1-.4c-.53-1.16-1-1.36-2-1.1s-1.06.5-.9,2.26l0,.33.07,1.43v.26l.07,1c.1,1.52,1,2,4.48,1.46l1.72-.3.13,0a5.37,5.37,0,0,0,3.22-3.49,1.58,1.58,0,0,1,.9-.83,2.61,2.61,0,0,1,1.95.14c.67.33,1,1.09,1,2.52,0,.2,0,.43-.07.73-.17,1.39-.27,1.62-1.56,4.24a7.63,7.63,0,0,0-.5,1.3c0,.13-.2.23-.86.3l-1.46-.27a45.61,45.61,0,0,0-6.5-.13l-5.57,0-3.62.07-.73,0c-2.82.13-3.78-.36-3.85-1.46a1.88,1.88,0,0,1,.33-1.42l0,0,1-.46c1.12-.57,1-.47,1.16-5.08,0-.76.06-1.66,0-3a68.93,68.93,0,0,0-.27-8l0-.2-.23-1.06c-.23-1-.23-.9-1.36-1.23a1.22,1.22,0,0,1-.63-.66,1.75,1.75,0,0,1-.13-.9C225.16,507.63,225.63,507.17,227.29,506.9Z"
     id="path46" />
  <path
     class="cls-6"
     d="M271,524.32a21.81,21.81,0,0,1-1,2.78c-2,4.81-2.82,5.71-4.41,6a2.89,2.89,0,0,1-1.66-.23c-1-.46-1.56-1.13-3.68-5.94l-2.79-6.13-1.06-2.43c-.26-.56-.6-1.26-1.56-3.15l-.4-.83-.76-1.42-.26-.53a2.88,2.88,0,0,0-.7-.33,3.59,3.59,0,0,1-.53-.24c-1.76-1.06-2-1.79-1.2-3.08.4-.57,1-1,3.09-1.53a21,21,0,0,1,4.41-.36c.5,0,1,0,1.49,0a16.8,16.8,0,0,1,2.69.23,5.19,5.19,0,0,1,2.19.77,1.66,1.66,0,0,1,.46,2.35,6.15,6.15,0,0,1-.59.56c-.47.5-.4.83,0,1.9l.4.92.49,1.16c.4.9.77,1.86,1.23,2.73s.73,1,.86.82a2.27,2.27,0,0,0,.5-.53c1.23-1.46,1.46-2.38,1.23-3.64a5.09,5.09,0,0,0-2.26-3.62,1.42,1.42,0,0,1-.6-.9c-.36-1.52,1.07-2.52,6.64-2.75l.9,0c.46,0,.89,0,1.32.06,3.29.24,4.18.47,4.75,1a1.59,1.59,0,0,1,.13,2.35c-.2.17-.43.33-.63.5-.67.4-.7.79-.27,1.79l0,.1.86,1.79.23.46,1.43,3c.1.16.2.33.3.46a.36.36,0,0,0,.49,0c.33-.3.5-.56,1.66-3.52s1.2-3.21,1-3.68h0l-1-.49a1.4,1.4,0,0,1-.76-2c.23-.73,1-1.23,3-1.63a17.74,17.74,0,0,1,3.91-.1l.57.07,1.12.1c.24,0,.5.1.77.13,1.75.43,2.32,1.23,2,2.36-.24.86-.37.89-2.26,1.52-.23.14-.46.27-.69.43-.93.7-.83.7-3.52,6.77l-.66,1.53-2.36,5.5L284,529.09l-.17.4c-.93,2.26-1.66,3-2.78,3.42a3.18,3.18,0,0,1-.77.13,2.89,2.89,0,0,1-3.08-1.82l-.5-.93-.2-.4c-.73-1.66-1.36-3.09-1.86-4.41-1.12-3-1.36-3.49-1.66-3.88l-.09-.17-.27-.43C272,521.6,271.67,522,271,524.32Z"
     id="path48" />
  <path
     class="cls-6"
     d="M295.7,515.79c1.13-3.25,2.25-4.88,4.61-6.57a13.55,13.55,0,0,1,8.09-2.72,15.56,15.56,0,0,1,4.18.43,12.62,12.62,0,0,1,7.53,5,12,12,0,0,1,2.29,6.47c.3,5.27-1.42,9-5.44,11.74a13,13,0,0,1-5.5,2.22,14.32,14.32,0,0,1-3.45.2,13.63,13.63,0,0,1-3.49-.63,12.57,12.57,0,0,1-6.17-4,13.17,13.17,0,0,1-3-5.91,17.91,17.91,0,0,1-.23-3.35A11.68,11.68,0,0,1,295.7,515.79Zm10.35,6.87a19.06,19.06,0,0,0,1,1.89c1.26,2.12,2.39,2.69,3.78,2.42,1.69-.33,2.66-1.82,2.46-4.55-.07-.49-.17-1.19-.33-2a18.78,18.78,0,0,0-2-5.34c-1.09-1.75-1.52-2.22-2.12-2.55a2.63,2.63,0,0,0-3.95,1.33,6.19,6.19,0,0,0-.36,1.66,14.89,14.89,0,0,0,.76,4.81A14.12,14.12,0,0,0,306.05,522.66Z"
     id="path50" />
  <path
     class="cls-6"
     d="M333,506.87h3.82l1.72-.17c.5,0,1,0,1.56,0a17,17,0,0,1,2.95.4c4.18,1,6.11,3.61,5.64,7.13a5.88,5.88,0,0,1-2.52,4.14c-.6.3-.79.4-1,.47a.88.88,0,0,0-.27.3.36.36,0,0,0,.07.4c.2.06.43.1.66.16,2.16.5,3.82,2.39,4.42,5.41l.2,1.06.06.5c.2,1.39.27,1.39,1.76,2a1,1,0,0,1,.53.37,1.55,1.55,0,0,1,0,2c-.5.9-2,1.56-4.85,1.7-4.08.26-5.83-1-7-4.28a4.15,4.15,0,0,1-.2-.67c-1.09-3.55-1.19-4-1.29-4.41s-.2-.56-.73-1a2.06,2.06,0,0,0-1.13-.46c-1-.2-1.39.13-1.39.36a49.75,49.75,0,0,0,.3,5c.26,1.09.3,1.16,1.56,1.72a1.6,1.6,0,0,1,.66,1c.26,1-.43,2-2.29,2.48a31.66,31.66,0,0,1-6.27.2c-3.18-.13-4.05-.4-4.64-1-.73-.79-.67-2-.1-2.38.39-.24.73-.4,1.06-.57.66-.36,1-1.29,1.09-4.34l0-2,.06-2.39a57.37,57.37,0,0,0-.26-6.63l-.07-.37-.1-.76c-.16-.93-.23-1-1.46-1.62a1.56,1.56,0,0,1-.83-1.13C324.5,507.63,326.06,506.9,333,506.87Zm4.81,10.55c.9-.2,1.73-1.46,1.56-3.72a2.76,2.76,0,0,0-1-2.42c-1.19-.83-2.25-.5-2.48.33l0,1-.06,2.32a7.59,7.59,0,0,0,0,.86C335.91,518,335.78,517.88,337.83,517.42Z"
     id="path52" />
  <path
     class="cls-6"
     d="M356.15,527.8a3.6,3.6,0,0,1,.36-.33c.47-.33.5-1.06.53-10.49,0-.89,0-1.69-.1-2.48l0-.33-.13-1.07c-.2-1.46-.07-1.26-1.76-2.19a2.35,2.35,0,0,1-.46-.43,1.74,1.74,0,0,1,.13-2.12c.4-.5,1-.8,2.59-1.16a16.65,16.65,0,0,1,2.12-.27c1-.06,1.89-.06,2.82,0a10.59,10.59,0,0,1,3.78.63,1.88,1.88,0,0,1,.76,3.28c-1.46,1.7-1.16,1.13-1.36,3.55a5.61,5.61,0,0,0,0,1.3.38.38,0,0,0,.53.26c.4-.13,1-.53,2.19-2.12,1.42-1.86,1.62-2.42,1.56-2.75v0l-.3-.36a1.88,1.88,0,0,1-.07-2.12c.5-1,1.69-1.5,5.81-1.56a16.12,16.12,0,0,1,4.28.3c2.05.56,2.65,1.79,1.85,3.05-.36.59-1.16.93-3.41.93a5.21,5.21,0,0,0-3.22,1.85c-3.25,3.35-3.22,2.46,1.39,7.77l4.35,5c2,2.22,1.66,2,3.28,2.71a3.69,3.69,0,0,1,.5.34,1.77,1.77,0,0,1,0,3c-1,.69-.6.59-4.45.33a22.69,22.69,0,0,0-4.67.3,1.94,1.94,0,0,1-1.43-.37h0l-.53-.83c-.4-.46-.83-1-2.42-3l-.14-.16L367.66,525a4.65,4.65,0,0,0-.86-.76.63.63,0,0,0-1,.39,4.23,4.23,0,0,0,0,1.8c.13,1.72.1,1.69.86,2.09a4.19,4.19,0,0,1,.73.49c1,.83.77,2.23-.59,3-.73.36-2.16.63-5.58.6a19.13,19.13,0,0,1-5.2-.47c-1.13-.33-1.6-.86-1.73-1.46C354.16,529.86,354.42,529.36,356.15,527.8Z"
     id="path54" />
  <path
     class="cls-6"
     d="M385.94,524.05a1.69,1.69,0,0,1,1.93-1.59c.83.1,1.36.53,2.35,1.82l.73,1,.17.23a4.67,4.67,0,0,0,1.72,1.36c.33.14.63.27.93.37,2.62.86,4.21.2,4.65-.8A1.15,1.15,0,0,0,398,525c-.8-.43-1.06-.47-4.88-1.66a9.49,9.49,0,0,1-1.29-.46,11.93,11.93,0,0,1-2.62-1.6,8.31,8.31,0,0,1-3.05-5.14,6.91,6.91,0,0,1,1.76-6.07,9.77,9.77,0,0,1,3.08-2.29A9.65,9.65,0,0,1,393,507c2.62-.7,3.85-.63,7.3.07.59.13.79.06,2.09-.34s2.38.27,4.14,3.12a3.6,3.6,0,0,1,.47,3.32,2.17,2.17,0,0,1-3.09,1.53c-.86-.3-1.42-.73-3.45-2.59-.26-.27-.66-.43-1.86-.66a3.82,3.82,0,0,0-2,.23,1.23,1.23,0,0,0-.73,1.69,1.88,1.88,0,0,0,1,1.06,16.28,16.28,0,0,0,3.45,1,11.21,11.21,0,0,1,3.81,1.23c3.26,1.79,4.48,4.41,4,8.06a7.77,7.77,0,0,1-.86,2.52c-1.33,2.52-3.58,4.15-7.7,5a17.43,17.43,0,0,1-3.71.3,17.71,17.71,0,0,1-3.95-.47c-4-1-4.81-1.69-5.67-5.7A9.1,9.1,0,0,1,386,525,7.23,7.23,0,0,1,385.94,524.05Z"
     id="path56" />
  <path
     class="cls-6"
     d="M412.88,527.7c.23-.13.47-.9.53-8.36,0-7.23-.06-7.8-1.59-8.46a4.31,4.31,0,0,1-.86-.46c-.7-.47-.7-1.56.4-2.42a5.29,5.29,0,0,1,2.22-.87,21.13,21.13,0,0,1,3.45-.26,22.64,22.64,0,0,1,3.28.13l1.36.23c1.76.3,2.42.77,2.59,1.66a2.18,2.18,0,0,1-.17,1.43l0,0-1,.63a2.13,2.13,0,0,0-.8.76l-.3,1.53c-.66,3.35-.36,3.65,3.46,3.65.33,0,.62,0,.92,0,2.09-.16,2.29-.39,2.16-2.15l0-.27-.1-1.12c-.17-1.76-.17-1.8-1.06-2.43a6.78,6.78,0,0,1-.7-.53,1.69,1.69,0,0,1,.56-2.75c.67-.36,1.79-.63,5-.76a5.74,5.74,0,0,1,.83,0,2.28,2.28,0,0,1,.69,0l.13,0,.87.07,2.62.23.06,0a1.25,1.25,0,0,1,.37.1c2.12.8,2.45,1.43,1.86,2.92-.14.3-.37.5-1.1.9-1.29.73-1.16.66-1.29,6.7v1.49l.1,4.58c.06,3.81,0,3.78,1.86,5a1.65,1.65,0,0,1,.56,1,1.88,1.88,0,0,1-.53,1.52c-.53.6-1.3.8-4.35,1a4.87,4.87,0,0,1-.69,0c-.67,0-1.3.07-1.83.07a14,14,0,0,1-2.45-.17,10.37,10.37,0,0,1-2.52-.5,1.65,1.65,0,0,1-.77-2.78c.1-.17.24-.27,1.06-1s1-1.26.9-4l-.07-1.39v0c-.13-1.06-.69-1.33-2.65-1.23-1.46.07-1.76.1-2,.1-2,0-2.49.86-1.89,4.51l.16,1v.06a1.16,1.16,0,0,0,.2.47c.23.43.43.59,1.36,1.06a1.39,1.39,0,0,1,.53,1,1.7,1.7,0,0,1-.4,1.43c-.43.56-1.19.89-3.35,1.23a24.58,24.58,0,0,1-2.52.2,18.16,18.16,0,0,1-5.07-.5c-1.66-.57-2.09-1-2.19-1.79S410.86,528.76,412.88,527.7Z"
     id="path58" />
  <path
     class="cls-6"
     d="M442.51,515.79c1.13-3.25,2.26-4.88,4.61-6.57a13.55,13.55,0,0,1,8.09-2.72,15.68,15.68,0,0,1,4.19.43,12.63,12.63,0,0,1,7.52,5,12,12,0,0,1,2.29,6.47c.3,5.27-1.42,9-5.44,11.74a13,13,0,0,1-5.5,2.22,14.32,14.32,0,0,1-3.45.2,13.71,13.71,0,0,1-3.49-.63,12.62,12.62,0,0,1-6.17-4,13.17,13.17,0,0,1-3-5.91,18.81,18.81,0,0,1-.23-3.35A12.18,12.18,0,0,1,442.51,515.79Zm10.35,6.87a19.06,19.06,0,0,0,1,1.89c1.26,2.12,2.39,2.69,3.78,2.42,1.7-.33,2.66-1.82,2.46-4.55-.07-.49-.17-1.19-.33-2a19.14,19.14,0,0,0-2-5.34c-1.1-1.75-1.53-2.22-2.13-2.55a2.62,2.62,0,0,0-3.94,1.33,5.81,5.81,0,0,0-.37,1.66,14.89,14.89,0,0,0,.76,4.81A14.12,14.12,0,0,0,452.86,522.66Z"
     id="path60" />
  <path
     class="cls-6"
     d="M473.9,506.9a59.53,59.53,0,0,1,6,.13c.53,0,1.09,0,5.14-.3a11.06,11.06,0,0,1,1.72,0c7.14.3,10.52,4.25,9.33,9.89a8.63,8.63,0,0,1-1.63,3.48c-1.59,2-3.38,2.92-6.47,3.25a29,29,0,0,1-3.61,0c-.64,0-.64,0-.8,1.1-.4,2.58.36,3.78,2.35,4.44.34.1.67,1-.06,2.06-.86,1.29-2.22,1.76-8.06,1.62-3.19-.06-4.71-.56-5.51-1.26s-.83-1.95-.36-2.32a13.83,13.83,0,0,1,1.22-.76c1-.7,1.1-1.06,1.13-3.59l.13-9.08c.07-4.22-.2-4.88-2.42-5.51-.33-.07-.56-.57-.36-1.49S472.44,507.1,473.9,506.9Zm13.23,7.86a3.62,3.62,0,0,0-2-3.45c-1-.56-1.82-.1-1.89.63-.1,1-.13,2.13-.13,3.15,0,4.15,0,4.25,2.29,3.45C486.47,518.15,487.26,516.85,487.13,514.76Z"
     id="path62" />
</svg>
