<svg id="Capa_1" data-name="Capa 1" xmlns="http://www.w3.org/2000/svg" viewBox="0 0 1177.99 700"><defs><style>.cls-1{fill:#fff;}</style></defs><title>Sabor Skateboards Logo Oficial Blanco</title><path class="cls-1" d="M1033.92,192.83l-5.56,1.19c-5.44,1.16-10.86,2.28-16.29,3.41-19,3.93-38.72,8-58.77,14a90.41,90.41,0,0,0-35.45,20.19c-11.49,10.51-24,26-29.59,61.56q-2,11.85-4,21.75a37.08,37.08,0,0,0-12.11-11.83,84.58,84.58,0,0,0-36.09-12.22,8.25,8.25,0,0,0,1.08-6c-1.48-7.27-11-10.87-42.3-16l-1.7-.28-1.56.71c-18.08,8.28-30.78,15.43-39.94,22.53-14,10.81-38.3,35.08-51.52,64.31-9-20.17-27.51-47.12-54.14-53.69a33.56,33.56,0,0,0-8-.88,69.45,69.45,0,0,0-21.62,4,81.19,81.19,0,0,0-16.74,8.32c21.29-86.45,53.68-198.16,73.13-242.06L674,69l-1.6-2.53c-5.4-8.57-19.13-28.52-30.14-28.55-8.12,0-18.13,7.42-36.2,61.21-10.43,31.05-22.5,74.59-35.85,129.42-20.28,83.23-38.09,169.73-46.9,213.89-3.11,15.56-8.57,36.89-15.81,37.9a7.2,7.2,0,0,1-1.39.14c-3.22,0-5.79.12-8.1-2.62-5.12-6-.8-18.54-.23-20.4,1.2-3.92,2.54-8,4-12.39,6.05-18.56,13.58-41.66,16.44-69.77.8-8-7-14.33-25.82-20.9a18.08,18.08,0,0,0-2.07-7.72A28,28,0,0,0,465.2,331.9a30,30,0,0,0-3.39.19c-14.24,1.49-32.8,14.9-50.59,28.49-26.45,20.22-47.43,41.47-62.51,63.3-5.43-10.47-14.56-17.1-31.08-29.12l-3.88-2.82c-17.94-13-36.48-26.5-49.77-39.35s-18.82-22.85-16.11-29.09c8.95-20.67,57.59-75.36,76.3-82.88a6.12,6.12,0,0,1,2.3-.32c6.85,0,17,4.68,20.13,7.19-.89,13.46-3.45,21.82-6.39,31.44-1.65,5.41-3.37,11-4.89,17.91-1.84,8.33.75,13.78,3.25,16.9,4.79,6,12.84,8.09,18.77,8.09a11.67,11.67,0,0,0,6.49-1.5c10.13-6.68,19.33-37.32,21.91-46.55,3.37-12,10.52-41.23,4.23-51.71-5.77-9.63-19-15.74-42.83-19.82a66,66,0,0,0-10.72-.87A78.26,78.26,0,0,0,313.59,205c-21.69,6.61-44.47,24.09-59.71,36.66-35.82,29.54-52.66,50.49-58.12,72.29-6.74,26.93,9.12,45.93,36.9,67.87,5.17,4.08,10.11,7.9,14.89,11.61,17.36,13.45,31.08,24.07,39.8,34.47,14.1,16.82,13,23.71,11.88,31-3.67,23.49-20,43.57-48.49,59.69l-.1.06c-2.59,1.53-6.29,2.35-10.7,2.35-13,0-30.71-7.21-38.63-15.75-2.26-2.43-3.48-4.79-3.35-6.47,1.62-21.42,16.56-47.84,43.2-76.38,4.44-4.75,3.8-9.11,3-11.29-2.42-6.79-11.46-12.32-47.68-17.24l-2.44-.34-1.9,1.57c-26,21.47-42.4,44.89-48.71,69.62-7.5,29.45,1.71,50.93,10.76,63.77,15.33,21.76,40.07,33.16,57.78,34.81,5.82.54,11.66.82,17.35.82,29.21,0,56-7,79.69-20.83,22.6-13.2,33.18-27.41,34.29-29l.35-.48c14,19.54,32.11,29.43,53.93,29.43,1.16,0,2.35,0,3.54-.09,18.69-.92,38-9.29,48-16.69,9.87-7.27,24.95,2.92,29.87,2.92,16.51,0,41.26-15.55,52.17-33,17.45,19,42.27,17.21,59.61,17.8,1.61.06,3.22.09,4.79.09,33,0,59.84-12.51,84.45-39.36a157.88,157.88,0,0,0,25.59-37.16c13.33,20.8,38.45,38,61.88,41.12a119,119,0,0,0,15.85,1.1c18.47,0,34.71-4.71,48.25-14,21.13-14.27,37.51-32.46,48.79-54.13,8.64,4.42,24.76,12.32,34.28,14.86a7.53,7.53,0,0,0,1.88.25c10.29,0,14.2-15.83,23.26-94.06,1.54-13.33,2.88-24.83,4.09-32.84,2.87-19.08,14.81-30.16,55.52-51.59,3.73-2,7.57-3.72,11.29-5.43,13.72-6.29,26.68-12.23,26.55-25.61a121,121,0,0,0-2.25-19.05ZM452.41,462.34c-17.11,24.27-34.09,36.57-50.47,36.57a35.21,35.21,0,0,1-9.3-1.28c-13.85-3.79-8.76-27.86-6.87-35.16,6.14-23.64,32.62-46.29,56-66.28l5-4.3a15.24,15.24,0,0,0,3.29.33c5,0,12.16-1.7,18.47-3.36l.35-.1a14.07,14.07,0,0,1,3.5-.51,5.81,5.81,0,0,1,1.55.18c.37,1.43.87,3.77,1.52,7.59C476.79,415.9,468.41,440,452.41,462.34Zm365.94-67.79c-19,30.74-34.31,37-54.42,37.55h-.32a11.52,11.52,0,0,1-9.59-4.51c-4.18-5.4-4.94-14.84-2.09-25.88,6.83-26.42,20.5-50.5,40.68-71.7a11.32,11.32,0,0,0,9.26,1.36l.4-.12a175.71,175.71,0,0,1,20.09-5.37c2.49-.56,5.06-1.13,7.64-1.77a23.37,23.37,0,0,1,5.17-.83h.37c.54,1.1.93,2.34,1.85,7.41C839.85,349.32,833.62,370.19,818.35,394.55ZM593.19,381.81a7.14,7.14,0,0,0,4.38-1.53c3-2.33,6.3-5.36,9.81-8.57,10.28-9.4,23.07-21.11,35.66-22.6a5.63,5.63,0,0,1,.58,0c9.18,0,18.13,25.15,20,38.84,3.69,27.85-8.38,51.33-36.89,71.77-9.29,6.66-18.69,10.18-27.2,10.18-11.32,0-20.79-6.38-24.72-16.65-.67-1.73-3-13.24,10.51-77.07C587.57,380.11,590.1,381.81,593.19,381.81Z"/><path class="cls-1" d="M341.15,653.41l3.49-2.09q3.69,6.78,8.52,6.78a8.21,8.21,0,0,0,3.89-1,6.76,6.76,0,0,0,2.76-2.58,6.64,6.64,0,0,0,.95-3.44,7,7,0,0,0-1.39-4,33.52,33.52,0,0,0-7.05-6.6q-5.13-3.88-6.4-5.61a10.3,10.3,0,0,1-2.17-6.29,9.5,9.5,0,0,1,1.28-4.89,9.19,9.19,0,0,1,3.62-3.48,10.4,10.4,0,0,1,5.07-1.27,10.83,10.83,0,0,1,5.44,1.44,18.81,18.81,0,0,1,5.35,5.29l-3.36,2.55a15.91,15.91,0,0,0-3.95-4.05,6.75,6.75,0,0,0-3.56-1,5.66,5.66,0,0,0-4.07,1.5A5,5,0,0,0,348,628.4a6.37,6.37,0,0,0,.56,2.6,9.51,9.51,0,0,0,2,2.74q.81.78,5.31,4.11,5.34,3.93,7.32,7a11.34,11.34,0,0,1,2,6.18,10.47,10.47,0,0,1-3.4,7.76,11.41,11.41,0,0,1-8.26,3.3,12.14,12.14,0,0,1-6.79-2A18.21,18.21,0,0,1,341.15,653.41Z"/><path class="cls-1" d="M387,618.93h3.91v24L405,630.67h5.74L394,645.17l17.69,15.9h-5.51l-15.31-13.69v13.69H387Z"/><path class="cls-1" d="M459.74,630.67v30.4h-3.86v-5.23a16.87,16.87,0,0,1-5.52,4.5,15.4,15.4,0,0,1-17.71-3.17,15.69,15.69,0,0,1-4.57-11.39,15.39,15.39,0,0,1,4.61-11.23,15,15,0,0,1,11.09-4.67,14.25,14.25,0,0,1,6.78,1.6,15.44,15.44,0,0,1,5.32,4.77v-5.58Zm-15.64,3a11.76,11.76,0,0,0-10.42,6.11,12.28,12.28,0,0,0,0,12.28,12,12,0,0,0,4.43,4.56,11.52,11.52,0,0,0,5.95,1.64,12.34,12.34,0,0,0,6.09-1.62,11.24,11.24,0,0,0,4.42-4.39,12.4,12.4,0,0,0,1.55-6.22,12.11,12.11,0,0,0-3.47-8.82A11.53,11.53,0,0,0,444.1,633.66Z"/><path class="cls-1" d="M485.68,619.38h3.91v11.29h6.21v3.38h-6.21v27h-3.91v-27h-5.34v-3.38h5.34Z"/><path class="cls-1" d="M541,651l3.3,1.73a17.89,17.89,0,0,1-3.75,5.14,14.72,14.72,0,0,1-4.78,3,16.65,16.65,0,0,1-6,1q-7.44,0-11.64-4.88a16.47,16.47,0,0,1-4.19-11,16.23,16.23,0,0,1,3.55-10.31,14.51,14.51,0,0,1,12-5.76,15,15,0,0,1,12.42,5.9,16.46,16.46,0,0,1,3.36,10.39H517.94a12.39,12.39,0,0,0,3.39,8.69,10.77,10.77,0,0,0,8.08,3.39,12.94,12.94,0,0,0,4.52-.81,11.9,11.9,0,0,0,3.73-2.15A17.9,17.9,0,0,0,541,651Zm0-8.19a13,13,0,0,0-2.28-5,10.75,10.75,0,0,0-4-3,12.22,12.22,0,0,0-5.18-1.14,11.17,11.17,0,0,0-7.69,2.87,13,13,0,0,0-3.56,6.29Z"/><path class="cls-1" d="M566.58,661.07V618.93h3.91v17a16.45,16.45,0,0,1,5.5-4.51,15.39,15.39,0,0,1,17.68,3.18,15.69,15.69,0,0,1,4.57,11.36,15.44,15.44,0,0,1-4.61,11.26,15,15,0,0,1-11.08,4.67,14.19,14.19,0,0,1-6.73-1.59,15.78,15.78,0,0,1-5.33-4.78v5.59Zm15.64-3A11.79,11.79,0,0,0,592.64,652a12.39,12.39,0,0,0,0-12.32,12,12,0,0,0-4.41-4.57,11.5,11.5,0,0,0-5.93-1.64,12.16,12.16,0,0,0-6.09,1.64,11.36,11.36,0,0,0-4.43,4.4,12.44,12.44,0,0,0-1.55,6.23,12.15,12.15,0,0,0,3.47,8.83A11.49,11.49,0,0,0,582.22,658.08Z"/><path class="cls-1" d="M633.49,629.88A15.06,15.06,0,0,1,645.13,635a16.31,16.31,0,0,1-.24,22.11,16.06,16.06,0,0,1-22.84,0,16.3,16.3,0,0,1-.24-22.08A15.06,15.06,0,0,1,633.49,629.88Zm0,3.83a11.25,11.25,0,0,0-8.38,3.61,12,12,0,0,0-3.51,8.71,12.43,12.43,0,0,0,1.6,6.15,11.35,11.35,0,0,0,4.32,4.4,12.29,12.29,0,0,0,12,0,11.26,11.26,0,0,0,4.31-4.4,12.32,12.32,0,0,0,1.6-6.15,12,12,0,0,0-3.52-8.71A11.26,11.26,0,0,0,633.47,633.71Z"/><path class="cls-1" d="M700.59,630.67v30.4h-3.85v-5.23a16.87,16.87,0,0,1-5.52,4.5,15.42,15.42,0,0,1-17.72-3.17,15.73,15.73,0,0,1-4.57-11.39,15.42,15.42,0,0,1,4.61-11.23,15.05,15.05,0,0,1,11.1-4.67,14.24,14.24,0,0,1,6.77,1.6,15.46,15.46,0,0,1,5.33,4.77v-5.58Zm-15.63,3a11.79,11.79,0,0,0-10.43,6.11,12.31,12.31,0,0,0,0,12.28,12,12,0,0,0,4.42,4.56,11.56,11.56,0,0,0,6,1.64,12.28,12.28,0,0,0,6.08-1.62,11.33,11.33,0,0,0,4.43-4.39A12.51,12.51,0,0,0,697,646a12.08,12.08,0,0,0-3.48-8.82A11.51,11.51,0,0,0,685,633.66Z"/><path class="cls-1" d="M721.65,630.67h4v4.44a14,14,0,0,1,3.78-3.93,7.48,7.48,0,0,1,4.13-1.3,7.16,7.16,0,0,1,3.47,1l-2,3.29a5.52,5.52,0,0,0-2.07-.53,5.65,5.65,0,0,0-3.77,1.61,10,10,0,0,0-2.77,5q-.74,2.6-.73,10.5v10.29h-4Z"/><path class="cls-1" d="M784.42,618.93v42.14h-3.86v-5.23a16.74,16.74,0,0,1-5.51,4.5,15.42,15.42,0,0,1-17.72-3.17,15.73,15.73,0,0,1-4.57-11.39,15.42,15.42,0,0,1,4.61-11.23,15.05,15.05,0,0,1,11.1-4.67,14.24,14.24,0,0,1,6.77,1.6,15.35,15.35,0,0,1,5.32,4.77V618.93Zm-15.63,14.73a11.79,11.79,0,0,0-10.43,6.11,12.31,12.31,0,0,0,0,12.28,12,12,0,0,0,4.42,4.56,11.56,11.56,0,0,0,6,1.64,12.28,12.28,0,0,0,6.08-1.62,11.33,11.33,0,0,0,4.43-4.39,12.51,12.51,0,0,0,1.55-6.22,12.08,12.08,0,0,0-3.48-8.82A11.51,11.51,0,0,0,768.79,633.66Z"/><path class="cls-1" d="M822.3,634l-2.52,2.6q-3.13-3-6.13-3.05a4.65,4.65,0,0,0-3.27,1.26,3.9,3.9,0,0,0-1.35,2.94,4.35,4.35,0,0,0,1.12,2.82,15.67,15.67,0,0,0,4.7,3.21q4.36,2.26,5.94,4.36a8,8,0,0,1,1.54,4.78,8.59,8.59,0,0,1-2.63,6.34,9,9,0,0,1-6.58,2.6,11.39,11.39,0,0,1-5-1.15,10.78,10.78,0,0,1-4-3.15l2.45-2.8c2,2.26,4.12,3.38,6.36,3.38a5.72,5.72,0,0,0,4-1.51,4.65,4.65,0,0,0,1.65-3.54,4.57,4.57,0,0,0-1.09-3,17.86,17.86,0,0,0-4.93-3.24,15.75,15.75,0,0,1-5.6-4.19,7.88,7.88,0,0,1-1.48-4.72,7.68,7.68,0,0,1,2.36-5.76,8.28,8.28,0,0,1,6-2.29Q818,629.88,822.3,634Z"/></svg>